<?xml version="1.0" encoding="UTF-8"?>
<!DOCTYPE svg PUBLIC "-//W3C//DTD SVG 1.1//EN" "http://www.w3.org/Graphics/SVG/1.1/DTD/svg11.dtd">
<!-- Creator: CorelDRAW X7 -->
<svg xmlns="http://www.w3.org/2000/svg" xml:space="preserve" width="159.338mm" height="76.2641mm" version="1.1" style="shape-rendering:geometricPrecision; text-rendering:geometricPrecision; image-rendering:optimizeQuality; fill-rule:evenodd; clip-rule:evenodd"
viewBox="0 0 15871 7596"
 xmlns:xlink="http://www.w3.org/1999/xlink">
 <defs>
  <style type="text/css">
   <![CDATA[
    .fil4 {fill:#FEFEFE}
    .fil2 {fill:#2B2A29}
    .fil0 {fill:#2B2A29}
    .fil3 {fill:#6BC7E4}
    .fil5 {fill:#00A0E3}
    .fil1 {fill:#00A0E3}
   ]]>
  </style>
 </defs>
 <g id="Layer_x0020_1">
  <metadata id="CorelCorpID_0Corel-Layer"/>
  <g id="_312126672">
   <path class="fil0" d="M469 1472l0 -1003 1003 0 0 -469 -1472 0 0 1472 469 0zm6658 0l469 0 0 -1472 -1472 0 0 469 1003 0 0 1003zm-1003 5655l0 469 1472 0 0 -1472 -469 0 0 1003 -1003 0zm-5655 -1003l-469 0 0 1472 1472 0 0 -469 -1003 0 0 -1003z"/>
   <path class="fil1" d="M10948 2572c-36,172 -77,349 -124,532l-207 827 -336 0 -586 -1844 359 0 222 734c68,231 122,440 163,626l8 0c41,-200 88,-406 141,-616l190 -744 348 0 190 744c53,208 100,414 141,616l8 0c50,-220 105,-429 162,-626l223 -734 359 0 -586 1844 -336 0 -207 -827c-47,-187 -88,-364 -124,-532l-8 0zm1475 23l328 0 0 1336 -328 0 0 -1336zm-8 -661l344 0 0 353 -344 0 0 -353zm689 1158l608 0 0 297 -608 0 0 -297zm1332 839l-338 0 0 -1844 1175 0 0 282 -837 0 0 477 716 0 0 283 -716 0 0 802zm1099 -1336l327 0 0 1336 -327 0 0 -1336zm-9 -661l345 0 0 353 -345 0 0 -353z"/>
   <path class="fil2" d="M9876 4705c0,41 8,75 25,102 17,27 39,49 67,67 28,17 60,31 98,43 37,11 76,21 115,31 55,13 108,28 160,44 53,16 99,38 140,66 41,28 74,65 100,110 25,46 37,104 37,175 0,73 -13,135 -41,188 -27,52 -65,95 -114,129 -48,34 -105,59 -172,75 -66,17 -138,25 -217,25 -36,0 -73,-2 -111,-7 -38,-4 -74,-10 -109,-18 -35,-7 -66,-16 -93,-26 -28,-10 -50,-20 -66,-29l0 -155c25,12 53,23 84,34 32,10 64,19 98,26 33,7 67,13 101,17 34,4 66,6 96,6 49,0 95,-4 140,-12 44,-9 83,-23 116,-42 33,-20 60,-46 79,-80 20,-34 30,-76 30,-127 0,-42 -9,-76 -26,-103 -17,-28 -40,-50 -68,-68 -29,-18 -62,-32 -99,-43 -37,-11 -76,-22 -117,-31 -55,-13 -107,-27 -159,-43 -52,-15 -98,-37 -139,-65 -40,-28 -73,-64 -98,-108 -24,-44 -37,-100 -37,-168 0,-71 13,-132 39,-183 26,-52 61,-94 105,-128 45,-33 96,-58 154,-74 58,-16 119,-24 185,-24 74,0 144,7 208,22 65,14 124,33 178,56l0 158c-58,-25 -118,-45 -180,-60 -62,-15 -128,-23 -198,-24 -53,0 -99,6 -138,17 -39,12 -71,28 -97,49 -26,21 -45,47 -57,77 -13,31 -19,64 -19,101zm1215 238l730 0 0 -606 171 0 0 1397 -171 0 0 -637 -730 0 0 637 -171 0 0 -1397 171 0 0 606zm1117 791l568 -1397 148 0 570 1397 -185 0 -164 -419 -589 0 -165 419 -183 0zm641 -1181c-63,174 -123,333 -179,475l-54 133 467 0 -54 -134c-57,-144 -116,-302 -176,-474l-4 0zm1030 604l0 577 -171 0 0 -1397 363 0c61,0 113,2 156,7 43,4 82,12 117,21 98,27 172,72 224,136 51,63 77,143 77,238 0,57 -9,107 -27,152 -18,44 -44,83 -76,116 -33,33 -72,60 -118,80 -46,21 -96,37 -152,46l0 5 414 596 -171 0 -431 -577 -205 0zm0 -666l0 512 168 0c52,0 97,-2 134,-6 37,-3 70,-9 99,-18 59,-19 105,-47 137,-87 32,-40 48,-92 48,-156 0,-59 -16,-108 -46,-144 -30,-37 -71,-63 -124,-79 -25,-8 -55,-13 -90,-17 -35,-3 -79,-5 -133,-5l-193 0zm1266 1089l717 0 0 154 -888 0 0 -1397 849 0 0 154 -678 0 0 452 604 0 0 154 -604 0 0 483z"/>
   <g>
    <path class="fil3" d="M1232 680l375 0c303,0 551,248 551,551l0 375c0,303 -248,551 -551,551l-375 0c-303,0 -551,-248 -551,-551l0 -375c0,-303 248,-551 551,-551zm0 420l375 0c72,0 131,59 131,131l0 375c0,72 -59,131 -131,131l-375 0c-72,0 -131,-59 -131,-131l0 -375c0,-72 59,-131 131,-131zm0 -300l375 0c237,0 431,194 431,431l0 375c0,237 -194,431 -431,431l-375 0c-237,0 -430,-194 -430,-431l0 -375c0,-237 193,-431 430,-431z"/>
    <path class="fil3" d="M1002 4053l0 0 0 0c41,0 75,-34 75,-75 0,-42 -34,-76 -75,-76 -42,0 -76,34 -76,76 0,41 34,75 76,75zm1191 -1913c0,-42 34,-76 75,-76 42,0 76,34 76,76 0,41 -34,75 -76,75 -41,0 -75,-34 -75,-75zm302 0c0,-42 33,-76 75,-76 42,0 75,34 75,76 0,41 -33,75 -75,75 -42,0 -75,-34 -75,-75zm226 0c0,-42 33,-76 75,-76 42,0 75,34 75,76 0,41 -33,75 -75,75 -42,0 -75,-34 -75,-75zm-515 150c0,-41 33,-75 75,-75 42,0 75,34 75,75 0,42 -33,76 -75,76 -42,0 -75,-34 -75,-76zm301 0c0,-41 34,-75 76,-75 41,0 75,34 75,75 0,42 -34,76 -75,76 -42,0 -76,-34 -76,-76zm226 0c0,-41 34,-75 76,-75 41,0 75,34 75,75 0,42 -34,76 -75,76 -42,0 -76,-34 -76,-76zm1667 562c0,-42 34,-76 76,-76 41,0 75,34 75,76 0,41 -34,75 -75,75 -42,0 -76,-34 -76,-75zm302 0c0,-42 34,-76 75,-76 42,0 76,34 76,76 0,41 -34,75 -76,75 -41,0 -75,-34 -75,-75zm226 0c0,-42 34,-76 75,-76 42,0 76,34 76,76 0,41 -34,75 -76,75 -41,0 -75,-34 -75,-75zm-515 150c0,-41 34,-75 75,-75 42,0 76,34 76,75 0,42 -34,76 -76,76 -41,0 -75,-34 -75,-76zm302 0c0,-41 33,-75 75,-75 42,0 75,34 75,75 0,42 -33,76 -75,76 -42,0 -75,-34 -75,-76zm226 0c0,-41 33,-75 75,-75 42,0 75,34 75,75 0,42 -33,76 -75,76 -42,0 -75,-34 -75,-76zm-3515 -605c41,0 75,34 75,75 0,42 -34,76 -75,76 41,0 75,33 75,75 0,42 -34,75 -75,75 41,0 75,34 75,76 0,42 -34,75 -75,75 -42,0 -76,-33 -76,-75 0,-42 34,-76 76,-76 -42,0 -76,-33 -76,-75 0,-42 34,-75 76,-75 -42,0 -76,-34 -76,-76 0,-41 34,-75 76,-75zm0 528c41,0 75,33 75,75 0,42 -34,75 -75,75 -42,0 -76,-33 -76,-75 0,-42 34,-75 76,-75zm0 301c41,0 75,34 75,76 0,41 -34,75 -75,75 -42,0 -76,-34 -76,-75 0,-42 34,-76 76,-76zm1405 559c0,-41 34,-75 75,-75 42,0 76,34 76,75 0,42 -34,76 -76,76 -41,0 -75,-34 -75,-76zm12 151c0,-42 34,-75 76,-75 41,0 75,33 75,75 0,42 -34,75 -75,75 -42,0 -76,-33 -76,-75zm298 -273c42,0 75,34 75,76 0,41 -33,75 -75,75l0 0 0 0c-42,0 -75,-34 -75,-75 0,-42 33,-76 75,-76zm0 151c42,0 75,34 75,75 0,42 -33,76 -75,76 -42,0 -75,-34 -75,-76 0,-41 33,-75 75,-75zm3536 1410c42,0 75,34 75,75 0,42 -33,76 -75,76 -42,0 -75,-34 -75,-76 0,-41 33,-75 75,-75zm-181 20c41,0 75,34 75,75 0,42 -34,76 -75,76 -42,0 -76,-34 -76,-76 0,-41 34,-75 76,-75zm344 -413c41,0 75,34 75,75 0,42 -34,76 -75,76 -42,0 -76,-34 -76,-76 0,-41 34,-75 76,-75zm0 226c41,0 75,34 75,76 0,41 -34,75 -75,75l0 0 0 0c-42,0 -76,-34 -76,-75 0,-42 34,-76 76,-76zm0 151c41,0 75,34 75,75 0,42 -34,76 -75,76 -42,0 -76,-34 -76,-76 0,-41 34,-75 76,-75zm-182 -960c42,0 76,34 76,76 0,41 -34,75 -76,75 -41,0 -75,-34 -75,-75 0,-42 34,-76 75,-76zm0 226c42,0 76,34 76,76 0,41 -34,75 -76,75 -41,0 -75,-34 -75,-75 0,-42 34,-76 75,-76zm0 227c42,0 76,33 76,75 0,42 -34,75 -76,75l0 0 0 0c-41,0 -75,-33 -75,-75 0,-42 34,-75 75,-75zm0 150c42,0 76,34 76,76 0,41 -34,75 -76,75 -41,0 -75,-34 -75,-75 0,-42 34,-76 75,-76zm-2865 1519c0,-41 33,-75 75,-75 42,0 75,34 75,75 0,42 -33,76 -75,76 -42,0 -75,-34 -75,-76zm12 151c0,-42 34,-75 76,-75 41,0 75,33 75,75 0,42 -34,75 -75,75 -42,0 -76,-33 -76,-75zm8 -322c0,-42 33,-76 75,-76 42,0 75,34 75,76 0,-42 34,-76 76,-76 41,0 75,34 75,76 0,41 -34,75 -75,75 -42,0 -76,-34 -76,-75 0,41 -33,75 -75,75 -42,0 -75,-34 -75,-75zm-2208 -1496c0,-42 34,-76 76,-76 41,0 75,34 75,76 0,41 -34,75 -75,75 -42,0 -76,-34 -76,-75zm13 150c0,-41 34,-75 75,-75 42,0 76,34 76,75 0,42 -34,76 -76,76 -41,0 -75,-34 -75,-76zm901 891c0,-42 34,-75 76,-75 41,0 75,33 75,75 0,42 -34,76 -75,76 -42,0 -76,-34 -76,-76zm13 151c0,-42 34,-76 75,-76 42,0 76,34 76,76 0,41 -34,75 -76,75 -41,0 -75,-34 -75,-75zm1001 105c0,-42 34,-76 76,-76 41,0 75,34 75,76 0,41 -34,75 -75,75 -42,0 -76,-34 -76,-75zm13 151c0,-42 34,-76 75,-76 42,0 76,34 76,76 0,41 -34,75 -76,75 -41,0 -75,-34 -75,-75zm1442 -275c0,-41 34,-75 76,-75 41,0 75,34 75,75 0,42 -34,76 -75,76 -42,0 -76,-34 -76,-76zm13 151c0,-41 34,-75 75,-75 42,0 76,34 76,75 0,42 -34,76 -76,76 -41,0 -75,-34 -75,-76zm1036 590c0,-42 34,-75 76,-75 42,0 75,33 75,75 0,42 -33,75 -75,75 -42,0 -76,-33 -76,-75zm13 151c0,-42 34,-76 75,-76 42,0 76,34 76,76 0,41 -34,75 -76,75 -41,0 -75,-34 -75,-75zm370 -327c0,-42 34,-76 76,-76 41,0 75,34 75,76 0,41 -34,75 -75,75 -42,0 -76,-34 -76,-75zm13 150c0,-41 34,-75 75,-75 42,0 76,34 76,75 0,42 -34,76 -76,76 -41,0 -75,-34 -75,-76zm-590 -2279c0,-42 34,-76 76,-76 41,0 75,34 75,76 0,41 -34,75 -75,75 -42,0 -76,-34 -76,-75zm-156 -177c0,-41 34,-75 75,-75 42,0 76,34 76,75 0,-41 33,-75 75,-75 42,0 75,34 75,75 0,42 -33,76 -75,76 -42,0 -75,-34 -75,-76 0,42 -34,76 -76,76 -41,0 -75,-34 -75,-76zm377 0c0,-33 22,-62 52,-71 -34,-8 -59,-38 -59,-74 0,-42 34,-75 75,-75 42,0 76,33 76,75 0,34 -22,62 -53,72 34,7 59,37 59,73 0,42 -33,76 -75,76 -42,0 -75,-34 -75,-76zm301 0c0,-41 34,-75 76,-75 41,0 75,34 75,75 0,42 -34,76 -75,76 -42,0 -76,-34 -76,-76zm226 0c0,-41 34,-75 76,-75 41,0 75,34 75,75 0,42 -34,76 -75,76 -42,0 -76,-34 -76,-76zm246 -78c42,0 75,34 75,75 0,42 -33,76 -75,76 -42,0 -75,-34 -75,-76 0,-41 33,-75 75,-75zm-1690 21c0,-42 34,-76 75,-76 42,0 76,34 76,76 0,-42 33,-76 75,-76 42,0 75,34 75,76 0,41 -33,75 -75,75 -42,0 -75,-34 -75,-75 0,41 -34,75 -76,75 -41,0 -75,-34 -75,-75zm12 150c0,-41 34,-75 76,-75 41,0 75,34 75,75 0,-41 34,-75 76,-75 41,0 75,34 75,75 0,42 -34,76 -75,76 -42,0 -76,-34 -76,-76 0,42 -34,76 -75,76 -42,0 -76,-34 -76,-76zm-687 484c0,-41 33,-75 75,-75 42,0 75,34 75,75 0,-41 34,-75 76,-75 41,0 75,34 75,75 0,42 -34,76 -75,76 -42,0 -76,-34 -76,-76 0,42 -33,76 -75,76 -42,0 -75,-34 -75,-76zm12 151c0,-41 34,-75 76,-75 41,0 75,34 75,75 0,-41 34,-75 75,-75 42,0 76,34 76,75 0,42 -34,76 -76,76 -41,0 -75,-34 -75,-76 0,42 -34,76 -75,76 -42,0 -76,-34 -76,-76zm1019 1045c0,-42 34,-76 76,-76 41,0 75,34 75,76 0,-42 34,-76 76,-76 41,0 75,34 75,76 0,41 -34,75 -75,75 -42,0 -76,-34 -76,-75 0,41 -34,75 -75,75 -42,0 -76,-34 -76,-75zm13 150c0,-41 34,-75 75,-75 42,0 76,34 76,75 0,-41 33,-75 75,-75 42,0 75,34 75,75 0,42 -33,76 -75,76 -42,0 -75,-34 -75,-76 0,42 -34,76 -76,76 -41,0 -75,-34 -75,-76zm-534 -344c0,-42 34,-75 76,-75 41,0 75,33 75,75 0,-42 34,-75 75,-75 42,0 76,33 76,75 0,-42 33,-75 75,-75 42,0 75,33 75,75 0,42 -33,75 -75,75 -42,0 -75,-33 -75,-75 0,42 -34,75 -76,75 -41,0 -75,-33 -75,-75 0,42 -34,75 -75,75 -42,0 -76,-33 -76,-75zm528 0c0,-42 34,-75 75,-75 42,0 76,33 76,75 0,42 -34,75 -76,75 -41,0 -75,-33 -75,-75zm301 0c0,-42 34,-75 76,-75 41,0 75,33 75,75 0,42 -34,75 -75,75 -42,0 -76,-33 -76,-75zm226 0c0,-42 34,-75 76,-75 41,0 75,33 75,75 0,42 -34,75 -75,75 -42,0 -76,-33 -76,-75zm-3139 -1492c42,0 76,34 76,75 0,42 -34,76 -76,76 -41,0 -75,-34 -75,-76 0,-41 34,-75 75,-75zm0 226c42,0 76,34 76,75 0,42 -34,76 -76,76 -41,0 -75,-34 -75,-76 0,-41 34,-75 75,-75zm-151 -214c42,0 76,34 76,76 0,41 -34,75 -76,75 -41,0 -75,-34 -75,-75 0,-42 34,-76 75,-76zm0 226c42,0 76,34 76,76 0,41 -34,75 -76,75 -41,0 -75,-34 -75,-75 0,-42 34,-76 75,-76zm-1167 -1027c42,0 75,33 75,75 0,42 -33,75 -75,75 -42,0 -75,-33 -75,-75 0,-42 33,-75 75,-75zm0 226c42,0 75,33 75,75 0,42 -33,75 -75,75 -42,0 -75,-33 -75,-75 0,-42 33,-75 75,-75zm-151 -214c42,0 76,34 76,76 0,41 -34,75 -76,75 -41,0 -75,-34 -75,-75 0,-42 34,-76 75,-76zm0 226c42,0 76,34 76,76 0,41 -34,75 -76,75 -41,0 -75,-34 -75,-75 0,-42 34,-76 75,-76zm460 -9c41,0 75,34 75,75 0,42 -34,76 -75,76 -42,0 -76,-34 -76,-76 0,-41 34,-75 76,-75zm0 226c41,0 75,34 75,75 0,42 -34,76 -75,76 -42,0 -76,-34 -76,-76 0,-41 34,-75 76,-75zm-151 -214c41,0 75,34 75,76 0,41 -34,75 -75,75 -42,0 -76,-34 -76,-75 0,-42 34,-76 76,-76zm0 227c41,0 75,33 75,75 0,42 -34,75 -75,75 -42,0 -76,-33 -76,-75 0,-42 34,-75 76,-75zm2144 -2739c-42,0 -75,34 -75,75 0,42 33,76 75,76 42,0 75,-34 75,-76 0,-41 -33,-75 -75,-75zm-72 34c0,-42 -34,-76 -75,-76 -42,0 -76,34 -76,76 0,-42 -33,-76 -75,-76 -42,0 -75,34 -75,76 0,-42 -34,-76 -76,-76 -41,0 -75,34 -75,76 0,41 34,75 75,75 42,0 76,-34 76,-75 0,41 33,75 75,75 42,0 75,-34 75,-75 0,41 34,75 76,75 41,0 75,-34 75,-75zm-528 0c0,-42 -33,-76 -75,-76 -42,0 -75,34 -75,76 0,41 33,75 75,75 42,0 75,-34 75,-75zm-301 0c0,-42 -34,-76 -75,-76 -42,0 -76,34 -76,76 0,41 34,75 76,75 41,0 75,-34 75,-75zm-226 0c0,-42 -34,-76 -76,-76 -41,0 -75,34 -75,76 0,41 34,75 75,75 42,0 76,-34 76,-75zm1844 -105c-42,0 -76,33 -76,75 0,42 34,75 76,75 -42,0 -76,34 -76,76 0,41 34,75 76,75 41,0 75,-34 75,-75 0,-42 -34,-76 -75,-76 41,0 75,-33 75,-75 0,-42 -34,-75 -75,-75zm769 -125c0,-42 -33,-76 -75,-76 -42,0 -76,34 -76,76 0,-42 -33,-76 -75,-76 -42,0 -75,34 -75,76 0,-42 -34,-76 -76,-76 -41,0 -75,34 -75,76 0,41 34,75 75,75 42,0 76,-34 76,-75 0,41 33,75 75,75 42,0 75,-34 75,-75 0,41 34,75 76,75 42,0 75,-34 75,-75zm-527 0c0,-42 -34,-76 -76,-76 -41,0 -75,34 -75,76 0,41 34,75 75,75 42,0 76,-34 76,-75zm-302 0c0,-42 -34,-76 -75,-76 -42,0 -76,34 -76,76 0,41 34,75 76,75 41,0 75,-34 75,-75zm-226 0c0,-42 -34,-76 -75,-76 -42,0 -76,34 -76,76 0,41 34,75 76,75 41,0 75,-34 75,-75zm1043 151c0,-42 -34,-76 -76,-76 -41,0 -75,34 -75,76 0,-42 -34,-76 -75,-76 -42,0 -76,34 -76,76 0,-42 -34,-76 -75,-76 -42,0 -76,34 -76,76 0,41 34,75 76,75 41,0 75,-34 75,-75 0,41 34,75 76,75 41,0 75,-34 75,-75 0,41 34,75 75,75 42,0 76,-34 76,-75zm-528 0c0,-42 -34,-76 -75,-76 -42,0 -76,34 -76,76 0,41 34,75 76,75 41,0 75,-34 75,-75zm-301 0c0,-42 -34,-76 -76,-76 -41,0 -75,34 -75,76 0,41 34,75 75,75 42,0 76,-34 76,-75zm-227 0c0,-42 -33,-76 -75,-76 -42,0 -75,34 -75,76 0,41 33,75 75,75 42,0 75,-34 75,-75zm-2393 3992c41,0 75,33 75,75 0,-42 34,-75 76,-75 41,0 75,33 75,75 0,42 -34,75 -75,75 -42,0 -76,-33 -76,-75 0,42 -34,75 -75,75l0 0 0 0c-42,0 -76,-33 -76,-75 0,-42 34,-75 76,-75zm0 150c41,0 75,34 75,76 0,41 -34,75 -75,75 -42,0 -76,-34 -76,-75 0,-42 34,-76 76,-76zm-600 -582c42,0 76,34 76,76 0,41 -34,75 -76,75l0 0 0 0c-41,0 -75,-34 -75,-75 0,-42 34,-76 75,-76zm0 151c42,0 76,34 76,75 0,42 -34,76 -76,76 -41,0 -75,-34 -75,-76 0,-41 34,-75 75,-75zm1230 1666c0,-42 34,-76 75,-76 42,0 76,34 76,76 0,41 -34,75 -76,75 -41,0 -75,-34 -75,-75zm226 0c0,-42 34,-76 76,-76 6,0 12,1 18,2 -6,-10 -10,-23 -10,-36 0,-42 34,-75 76,-75 41,0 75,33 75,75 0,42 -34,75 -75,75 -7,0 -13,0 -18,-2 6,11 9,23 9,37 0,41 -34,75 -75,75 -42,0 -76,-34 -76,-75zm-213 150c0,-41 33,-75 75,-75 42,0 75,34 75,75 0,42 -33,76 -75,76 -42,0 -75,-34 -75,-76zm226 0c0,-41 34,-75 75,-75 42,0 76,34 76,75 0,42 -34,76 -76,76 -41,0 -75,-34 -75,-76zm1366 -468c0,-41 34,-75 75,-75 42,0 76,34 76,75 0,42 -34,76 -76,76 -41,0 -75,-34 -75,-76zm226 0c0,-41 34,-75 75,-75 42,0 76,34 76,75 0,42 -34,76 -76,76 -41,0 -75,-34 -75,-76zm-214 151c0,-42 34,-75 76,-75 41,0 75,33 75,75 0,42 -34,75 -75,75 -42,0 -76,-33 -76,-75zm227 0c0,-42 33,-75 75,-75 42,0 75,33 75,75 0,42 -33,75 -75,75 -42,0 -75,-33 -75,-75zm1174 -3861c41,0 75,33 75,75 0,42 -34,75 -75,75 41,0 75,34 75,76 0,41 -34,75 -75,75 -42,0 -76,-34 -76,-75 0,-42 34,-76 76,-76 -42,0 -76,-33 -76,-75 0,-42 34,-75 76,-75zm0 377c41,0 75,33 75,75 0,42 -34,75 -75,75 -42,0 -76,-33 -76,-75 0,-42 34,-75 76,-75zm72 -343c0,-42 33,-76 75,-76 42,0 75,34 75,76 0,-42 34,-76 76,-76 41,0 75,34 75,76 0,-42 34,-76 76,-76 41,0 75,34 75,76 0,41 -34,75 -75,75 -42,0 -76,-34 -76,-75 0,41 -34,75 -75,75 -42,0 -76,-34 -76,-75 0,41 -33,75 -75,75 -42,0 -75,-34 -75,-75zm527 0c0,-42 34,-76 76,-76 41,0 75,34 75,76 0,41 -34,75 -75,75 -42,0 -76,-34 -76,-75zm302 0c0,-42 34,-76 75,-76 42,0 76,34 76,76 0,41 -34,75 -76,75 -41,0 -75,-34 -75,-75zm226 0c0,-42 34,-76 75,-76 42,0 76,34 76,76 0,41 -34,75 -76,75 -41,0 -75,-34 -75,-75zm-379 544c41,0 75,34 75,75 0,42 -34,76 -75,76 -42,0 -76,-34 -76,-76 0,-41 34,-75 76,-75zm-151 -289c42,0 75,34 75,75 0,42 -33,76 -75,76 -42,0 -75,-34 -75,-76 0,-41 33,-75 75,-75zm-2087 -990c42,0 75,33 75,75 0,42 -33,75 -75,75 42,0 75,34 75,76 0,41 -33,75 -75,75 -42,0 -75,-34 -75,-75 0,-42 33,-76 75,-76 -42,0 -75,-33 -75,-75 0,-42 33,-75 75,-75zm0 376c42,0 75,34 75,76 0,41 -33,75 -75,75 -42,0 -75,-34 -75,-75 0,-42 33,-76 75,-76zm72 -343c0,-41 34,-75 75,-75 42,0 76,34 76,75 0,-41 33,-75 75,-75 42,0 75,34 75,75 0,-41 34,-75 76,-75 41,0 75,34 75,75 0,42 -34,76 -75,76 -42,0 -76,-34 -76,-76 0,42 -33,76 -75,76 -42,0 -75,-34 -75,-76 0,42 -34,76 -76,76 -41,0 -75,-34 -75,-76zm527 0c0,-41 34,-75 76,-75 41,0 75,34 75,75 0,42 -34,76 -75,76 -42,0 -76,-34 -76,-76zm302 0c0,-41 34,-75 75,-75 42,0 76,34 76,75 0,42 -34,76 -76,76 -41,0 -75,-34 -75,-76zm226 0c0,-41 34,-75 76,-75 41,0 75,34 75,75 0,42 -34,76 -75,76 -42,0 -76,-34 -76,-76zm-379 545c42,0 75,33 75,75 0,42 -33,75 -75,75 -42,0 -75,-33 -75,-75 0,-42 33,-75 75,-75zm-151 -289c42,0 76,34 76,75 0,42 -34,76 -76,76 -41,0 -75,-34 -75,-76 0,-41 34,-75 75,-75zm-1166 1717c42,0 76,33 76,75 0,42 -34,75 -76,75 42,0 76,34 76,76 0,41 -34,75 -76,75 -41,0 -75,-34 -75,-75 0,-42 34,-76 75,-76 -41,0 -75,-33 -75,-75 0,-42 34,-75 75,-75zm0 377c42,0 76,33 76,75 0,42 -34,75 -76,75 -41,0 -75,-33 -75,-75 0,-42 34,-75 75,-75zm72 -343c0,-42 34,-76 76,-76 41,0 75,34 75,76 0,-42 34,-76 75,-76 42,0 76,34 76,76 0,-42 33,-76 75,-76 42,0 75,34 75,76 0,41 -33,75 -75,75 -42,0 -75,-34 -75,-75 0,41 -34,75 -76,75 -41,0 -75,-34 -75,-75 0,41 -34,75 -75,75 -42,0 -76,-34 -76,-75zm528 0c0,-23 9,-43 25,-57 -10,5 -21,8 -32,8 -42,0 -76,-34 -76,-76 0,-41 34,-75 76,-75 41,0 75,34 75,75 0,22 -9,42 -25,56 10,-4 21,-7 32,-7 42,0 76,34 76,76 0,41 -34,75 -76,75 -41,0 -75,-34 -75,-75zm301 0c0,-42 34,-76 76,-76 41,0 75,34 75,76 0,41 -34,75 -75,75 -42,0 -76,-34 -76,-75zm226 0c0,-42 34,-76 76,-76 41,0 75,34 75,76 0,41 -34,75 -75,75 -42,0 -76,-34 -76,-75zm-379 544c42,0 76,34 76,75 0,42 -34,76 -76,76 -41,0 -75,-34 -75,-76 0,-41 34,-75 75,-75zm-150 -289c41,0 75,34 75,75 0,42 -34,76 -75,76 -42,0 -76,-34 -76,-76 0,-41 34,-75 76,-75zm-2146 -1052c42,0 75,34 75,76 0,41 -33,75 -75,75 42,0 75,34 75,76 0,41 -33,75 -75,75 -42,0 -75,-34 -75,-75 0,-42 33,-76 75,-76 -42,0 -75,-34 -75,-75 0,-42 33,-76 75,-76zm0 377c42,0 75,34 75,76 0,41 -33,75 -75,75 -42,0 -75,-34 -75,-75 0,-42 33,-76 75,-76zm72 -343c0,-41 34,-75 75,-75 42,0 76,34 76,75 0,-41 33,-75 75,-75 42,0 75,34 75,75 0,-41 34,-75 76,-75 41,0 75,34 75,75 0,42 -34,76 -75,76 -42,0 -76,-34 -76,-76 0,42 -33,76 -75,76 -42,0 -75,-34 -75,-76 0,42 -34,76 -76,76 -41,0 -75,-34 -75,-76zm528 0c0,-41 33,-75 75,-75 42,0 75,34 75,75 0,42 -33,76 -75,76 -42,0 -75,-34 -75,-76zm301 0c0,-41 34,-75 75,-75 42,0 76,34 76,75 0,42 -34,76 -76,76 -41,0 -75,-34 -75,-76zm226 0c0,-41 34,-75 76,-75 41,0 75,34 75,75 0,42 -34,76 -75,76 -42,0 -76,-34 -76,-76zm-379 545c42,0 76,33 76,75 0,42 -34,75 -76,75 -41,0 -75,-33 -75,-75 0,-42 34,-75 75,-75zm-151 -289c42,0 76,33 76,75 0,42 -34,75 -76,75 -41,0 -75,-33 -75,-75 0,-42 34,-75 75,-75zm2179 2046c41,0 75,34 75,75 0,42 -34,76 -75,76 41,0 75,33 75,75 0,42 -34,75 -75,75 41,0 75,34 75,76 0,41 -34,75 -75,75 -42,0 -76,-34 -76,-75 0,-42 34,-76 76,-76 -42,0 -76,-33 -76,-75 0,-42 34,-75 76,-75 -42,0 -76,-34 -76,-76 0,-41 34,-75 76,-75zm0 528c41,0 75,33 75,75 0,42 -34,75 -75,75 -42,0 -76,-33 -76,-75 0,-42 34,-75 76,-75zm0 301c41,0 75,34 75,75 0,42 -34,76 -75,76 -42,0 -76,-34 -76,-76 0,-41 34,-75 76,-75zm0 226c41,0 75,34 75,76 0,41 -34,75 -75,75l0 0 0 0c-42,0 -76,-34 -76,-75 0,-42 34,-76 76,-76zm0 151c41,0 75,34 75,75 0,42 -34,76 -75,76 -42,0 -76,-34 -76,-76 0,-41 34,-75 76,-75zm141 -2970c41,0 75,34 75,76 0,41 -34,75 -75,75 41,0 75,34 75,75 0,42 -34,76 -75,76 41,0 75,34 75,75 0,42 -34,76 -75,76 -42,0 -76,-34 -76,-76 0,-41 34,-75 76,-75 -42,0 -76,-34 -76,-76 0,-41 34,-75 76,-75 -42,0 -76,-34 -76,-75 0,-42 34,-76 76,-76zm0 528c41,0 75,34 75,75 0,42 -34,76 -75,76 -42,0 -76,-34 -76,-76 0,-41 34,-75 76,-75zm0 301c41,0 75,34 75,76 0,42 -34,75 -75,75 -42,0 -76,-33 -76,-75 0,-42 34,-76 76,-76zm0 227c41,0 75,33 75,75 0,42 -34,75 -75,75l0 0 0 0c-42,0 -76,-33 -76,-75 0,-42 34,-75 76,-75zm0 150c41,0 75,34 75,76 0,41 -34,75 -75,75 -42,0 -76,-34 -76,-75 0,-42 34,-76 76,-76zm529 -2740c41,0 75,34 75,75 0,42 -34,76 -75,76 41,0 75,34 75,75 0,42 -34,76 -75,76 41,0 75,33 75,75 0,42 -34,75 -75,75 -42,0 -76,-33 -76,-75 0,-42 34,-75 76,-75 -42,0 -76,-34 -76,-76 0,-41 34,-75 76,-75 -42,0 -76,-34 -76,-76 0,-41 34,-75 76,-75zm0 528c41,0 75,33 75,75 0,42 -34,75 -75,75 -42,0 -76,-33 -76,-75 0,-42 34,-75 76,-75zm0 301c41,0 75,34 75,76 0,41 -34,75 -75,75 -42,0 -76,-34 -76,-75 0,-42 34,-76 76,-76zm0 226c41,0 75,34 75,76 0,41 -34,75 -75,75l0 0 0 0c-42,0 -76,-34 -76,-75 0,-42 34,-76 76,-76zm0 151c41,0 75,34 75,76 0,41 -34,75 -75,75 -42,0 -76,-34 -76,-75 0,-42 34,-76 76,-76zm-1305 -853c41,0 75,34 75,75 0,42 -34,76 -75,76 41,0 75,33 75,75 0,42 -34,75 -75,75 41,0 75,34 75,76 0,41 -34,75 -75,75 -42,0 -76,-34 -76,-75 0,-42 34,-76 76,-76 -42,0 -76,-33 -76,-75 0,-42 34,-75 76,-75 -42,0 -76,-34 -76,-76 0,-41 34,-75 76,-75zm0 527c41,0 75,34 75,76 0,41 -34,75 -75,75 -42,0 -76,-34 -76,-75 0,-42 34,-76 76,-76zm0 302c41,0 75,34 75,75 0,42 -34,76 -75,76 -42,0 -76,-34 -76,-76 0,-41 34,-75 76,-75zm0 226c41,0 75,34 75,75 0,42 -34,76 -75,76l0 0 0 0c-42,0 -76,-34 -76,-76 0,-41 34,-75 76,-75zm-741 -1761c42,0 75,34 75,76 0,41 -33,75 -75,75 42,0 75,34 75,76 0,41 -33,75 -75,75 42,0 75,34 75,75 0,42 -33,76 -75,76 -42,0 -75,-34 -75,-76 0,-41 33,-75 75,-75 -42,0 -75,-34 -75,-75 0,-42 33,-76 75,-76 -42,0 -75,-34 -75,-75 0,-42 33,-76 75,-76zm0 528c42,0 75,34 75,75 0,42 -33,76 -75,76 -42,0 -75,-34 -75,-76 0,-41 33,-75 75,-75zm0 302c42,0 75,33 75,75 0,42 -33,75 -75,75 -42,0 -75,-33 -75,-75 0,-42 33,-75 75,-75zm0 226c42,0 75,33 75,75 0,42 -33,75 -75,75l0 0 0 0c-42,0 -75,-33 -75,-75 0,-42 33,-75 75,-75zm0 150c42,0 75,34 75,76 0,41 -33,75 -75,75 -42,0 -75,-34 -75,-75 0,-42 33,-76 75,-76zm2187 576c24,0 46,11 59,29 3,-40 36,-71 76,-71 41,0 75,34 75,75 0,-41 34,-75 75,-75 42,0 76,34 76,75 0,-41 34,-75 75,-75 42,0 76,34 76,75 0,42 -34,76 -76,76 -41,0 -75,-34 -75,-76 0,42 -34,76 -76,76 -41,0 -75,-34 -75,-76 0,42 -34,76 -75,76 -25,0 -46,-12 -60,-29 -2,39 -35,70 -75,70 41,0 75,34 75,76 0,41 -34,75 -75,75 41,0 75,34 75,75 0,42 -34,76 -75,76 -42,0 -76,-34 -76,-76 0,-41 34,-75 76,-75 -42,0 -76,-34 -76,-75 0,-42 34,-76 76,-76 -42,0 -76,-33 -76,-75 0,-42 34,-75 76,-75zm0 527c41,0 75,34 75,76 0,41 -34,75 -75,75 -42,0 -76,-34 -76,-75 0,-42 34,-76 76,-76zm0 302c41,0 75,33 75,75 0,42 -34,75 -75,75 -42,0 -76,-33 -76,-75 0,-42 34,-75 76,-75zm0 226c41,0 75,34 75,75 0,42 -34,76 -75,76l0 0 0 0c-42,0 -76,-34 -76,-76 0,-41 34,-75 76,-75zm0 151c41,0 75,33 75,75 0,42 -34,75 -75,75 -42,0 -76,-33 -76,-75 0,-42 34,-75 76,-75zm-2945 -413c41,0 75,34 75,75 0,42 -34,76 -75,76 41,0 75,34 75,75 0,42 -34,76 -75,76 41,0 75,33 75,75 0,42 -34,75 -75,75 -42,0 -76,-33 -76,-75 0,-42 34,-75 76,-75 -42,0 -76,-34 -76,-76 0,-41 34,-75 76,-75 -42,0 -76,-34 -76,-76 0,-41 34,-75 76,-75zm0 528c41,0 75,34 75,75 0,42 -34,76 -75,76 -42,0 -76,-34 -76,-76 0,-41 34,-75 76,-75zm0 301c41,0 75,34 75,76 0,41 -34,75 -75,75 -42,0 -76,-34 -76,-75 0,-42 34,-76 76,-76zm0 226c41,0 75,34 75,76 0,41 -34,75 -75,75l0 0 0 0c-42,0 -76,-34 -76,-75 0,-42 34,-76 76,-76zm0 151c41,0 75,34 75,76 0,41 -34,75 -75,75 -42,0 -76,-34 -76,-75 0,-42 34,-76 76,-76zm-532 -1571c41,0 75,33 75,75 0,42 -34,75 -75,75 41,0 75,34 75,76 0,41 -34,75 -75,75 41,0 75,34 75,76 0,41 -34,75 -75,75 -42,0 -76,-34 -76,-75 0,-42 34,-76 76,-76 -42,0 -76,-34 -76,-75 0,-42 34,-76 76,-76 -42,0 -76,-33 -76,-75 0,-42 34,-75 76,-75zm0 527c41,0 75,34 75,75 0,-41 34,-75 75,-75 42,0 76,34 76,76 0,41 -34,75 -76,75 -41,0 -75,-34 -75,-75 0,41 -34,75 -75,75 -42,0 -76,-34 -76,-75 0,41 -34,75 -75,75 -42,0 -76,-34 -76,-75 0,-42 34,-76 76,-76 41,0 75,34 75,76 0,-42 34,-76 76,-76zm0 302c41,0 75,34 75,75 0,42 -34,76 -75,76 -42,0 -76,-34 -76,-76 0,-41 34,-75 76,-75zm0 226c41,0 75,34 75,75 0,42 -34,76 -75,76l0 0 0 0c-42,0 -76,-34 -76,-76 0,-41 34,-75 76,-75zm3126 1354c0,-41 34,-75 75,-75 42,0 76,34 76,75 0,-41 33,-75 75,-75 42,0 75,34 75,75 0,-41 34,-75 76,-75 41,0 75,34 75,75 0,42 -34,76 -75,76 -42,0 -76,-34 -76,-76 0,42 -33,76 -75,76 -42,0 -75,-34 -75,-76 0,42 -34,76 -76,76 -41,0 -75,-34 -75,-76zm527 0c0,-41 34,-75 76,-75 41,0 75,34 75,75 0,42 -34,76 -75,76 -42,0 -76,-34 -76,-76zm302 0c0,-41 34,-75 75,-75 42,0 76,34 76,75 0,42 -34,76 -76,76 -41,0 -75,-34 -75,-76zm226 0c0,-41 34,-75 75,-75 42,0 76,34 76,75 0,42 -34,76 -76,76 -41,0 -75,-34 -75,-76zm-1344 151c0,-41 34,-75 75,-75 42,0 76,34 76,75 0,42 -34,76 -76,76 -41,0 -75,-34 -75,-76zm301 0c0,-41 34,-75 76,-75 41,0 75,34 75,75 0,-41 34,-75 76,-75 41,0 75,34 75,75 0,-41 34,-75 75,-75 42,0 76,34 76,75 0,42 -34,76 -76,76 -41,0 -75,-34 -75,-76 0,42 -34,76 -75,76 -42,0 -76,-34 -76,-76 0,42 -34,76 -75,76 -42,0 -76,-34 -76,-76zm528 0c0,-41 34,-75 75,-75 42,0 76,34 76,75 0,42 -34,76 -76,76 -41,0 -75,-34 -75,-76zm302 0c0,-41 33,-75 75,-75 42,0 75,34 75,75 0,42 -33,76 -75,76 -42,0 -75,-34 -75,-76zm226 0c0,-41 33,-75 75,-75 42,0 75,34 75,75 0,42 -33,76 -75,76 -42,0 -75,-34 -75,-76zm-130 -2955c0,-41 34,-75 75,-75 42,0 76,34 76,75 0,42 -34,76 -76,76 -41,0 -75,-34 -75,-76zm301 0c0,-41 34,-75 76,-75 41,0 75,34 75,75 0,42 -34,76 -75,76 -42,0 -76,-34 -76,-76zm227 0c0,-41 33,-75 75,-75 42,0 75,34 75,75 0,42 -33,76 -75,76 -42,0 -75,-34 -75,-76zm-1345 151c0,-41 34,-75 76,-75 41,0 75,34 75,75 0,42 -34,76 -75,76 -42,0 -76,-34 -76,-76zm302 0c0,-41 34,-75 75,-75 42,0 76,34 76,75 0,-41 33,-75 75,-75 42,0 75,34 75,75 0,-41 34,-75 76,-75 41,0 75,34 75,75 0,42 -34,76 -75,76 -42,0 -76,-34 -76,-76 0,42 -33,76 -75,76 -42,0 -75,-34 -75,-76 0,42 -34,76 -76,76 -41,0 -75,-34 -75,-76zm527 0c0,-41 34,-75 76,-75 41,0 75,34 75,75 0,42 -34,76 -75,76 -42,0 -76,-34 -76,-76zm302 0c0,-41 34,-75 75,-75 42,0 76,34 76,75 0,42 -34,76 -76,76 -41,0 -75,-34 -75,-76zm226 0c0,-41 34,-75 75,-75 42,0 76,34 76,75 0,42 -34,76 -76,76 -41,0 -75,-34 -75,-76zm-4083 -2090c0,-42 33,-76 75,-76 42,0 75,34 75,76 0,-42 34,-76 76,-76 41,0 75,34 75,76 0,-42 34,-76 76,-76 41,0 75,34 75,76 0,41 -34,75 -75,75 -42,0 -76,-34 -76,-75 0,41 -34,75 -75,75 -42,0 -76,-34 -76,-75 0,41 -33,75 -75,75 -42,0 -75,-34 -75,-75zm527 0c0,-42 34,-76 76,-76 41,0 75,34 75,76 0,41 -34,75 -75,75 -42,0 -76,-34 -76,-75zm302 0c0,-42 34,-76 75,-76 42,0 76,34 76,76 0,41 -34,75 -76,75 -41,0 -75,-34 -75,-75zm226 0c0,-42 34,-76 75,-76 42,0 76,34 76,76 0,41 -34,75 -76,75 -41,0 -75,-34 -75,-75zm-1344 150c0,-41 33,-75 75,-75 42,0 75,34 75,75 0,42 -33,76 -75,76 -42,0 -75,-34 -75,-76zm301 0c0,-41 34,-75 76,-75 41,0 75,34 75,75 0,-41 34,-75 75,-75 42,0 76,34 76,75 0,-41 33,-75 75,-75 42,0 75,34 75,75 0,42 -33,76 -75,76 -42,0 -75,-34 -75,-76 0,42 -34,76 -76,76 -41,0 -75,-34 -75,-76 0,42 -34,76 -75,76 -42,0 -76,-34 -76,-76zm528 0c0,-41 34,-75 75,-75 42,0 76,34 76,75 0,42 -34,76 -76,76 -41,0 -75,-34 -75,-76zm301 0c0,-41 34,-75 76,-75 41,0 75,34 75,75 0,42 -34,76 -75,76 -42,0 -76,-34 -76,-76zm226 0c0,-41 34,-75 76,-75 41,0 75,34 75,75 0,42 -34,76 -75,76 -42,0 -76,-34 -76,-76zm-2355 2636c0,-42 34,-75 76,-75 41,0 75,33 75,75 0,-42 34,-75 75,-75 42,0 76,33 76,75 0,-42 34,-75 75,-75 42,0 76,33 76,75 0,42 -34,75 -76,75 -41,0 -75,-33 -75,-75 0,42 -34,75 -76,75 -41,0 -75,-33 -75,-75 0,42 -34,75 -75,75 -42,0 -76,-33 -76,-75zm528 0c0,-42 34,-75 75,-75 42,0 76,33 76,75 0,42 -34,75 -76,75 -41,0 -75,-33 -75,-75zm301 0c0,-42 34,-75 76,-75 41,0 75,33 75,75 0,42 -34,75 -75,75 -42,0 -76,-33 -76,-75zm227 0c0,-42 33,-75 75,-75 42,0 75,33 75,75 0,42 -33,75 -75,75 -42,0 -75,-33 -75,-75zm-1345 151c0,-42 34,-76 76,-76 41,0 75,34 75,76 0,41 -34,75 -75,75 -42,0 -76,-34 -76,-75zm302 0c0,-42 34,-76 75,-76 42,0 76,34 76,76 0,-42 33,-76 75,-76 42,0 75,34 75,76 0,-42 34,-76 76,-76 41,0 75,34 75,76 0,41 -34,75 -75,75 -42,0 -76,-34 -76,-75 0,41 -33,75 -75,75 -42,0 -75,-34 -75,-75 0,41 -34,75 -76,75 -41,0 -75,-34 -75,-75zm1055 0c0,-42 34,-76 75,-76 42,0 76,34 76,76 0,41 -34,75 -76,75 -41,0 -75,-34 -75,-75zm1031 1172c0,-42 34,-76 75,-76 42,0 76,34 76,76 0,-42 33,-76 75,-76 42,0 75,34 75,76 0,-42 34,-76 76,-76 41,0 75,34 75,76 0,41 -34,75 -75,75 -42,0 -76,-34 -76,-75 0,41 -33,75 -75,75 -42,0 -75,-34 -75,-75 0,41 -34,75 -76,75 -41,0 -75,-34 -75,-75zm527 0c0,-42 34,-76 76,-76 42,0 75,34 75,76 0,41 -33,75 -75,75 -42,0 -76,-34 -76,-75zm302 0c0,-42 34,-76 75,-76 42,0 76,34 76,76 0,41 -34,75 -76,75 -41,0 -75,-34 -75,-75zm226 0c0,-42 34,-76 76,-76 41,0 75,34 75,76 0,41 -34,75 -75,75 -42,0 -76,-34 -76,-75zm-1344 150c0,-41 34,-75 75,-75 42,0 76,34 76,75 0,42 -34,76 -76,76 -41,0 -75,-34 -75,-76zm301 0c0,-41 34,-75 76,-75 41,0 75,34 75,75 0,-41 34,-75 76,-75 41,0 75,34 75,75 0,-41 34,-75 75,-75 42,0 76,34 76,75 0,42 -34,76 -76,76 -41,0 -75,-34 -75,-76 0,42 -34,76 -75,76 -42,0 -76,-34 -76,-76 0,42 -34,76 -75,76 -42,0 -76,-34 -76,-76zm528 0c0,-41 34,-75 75,-75 42,0 76,34 76,75 0,42 -34,76 -76,76 -41,0 -75,-34 -75,-76zm302 0c0,-41 33,-75 75,-75 42,0 75,34 75,75 0,42 -33,76 -75,76 -42,0 -75,-34 -75,-76zm226 0c0,-41 33,-75 75,-75 42,0 75,34 75,75 0,42 -33,76 -75,76 -42,0 -75,-34 -75,-76zm62 -713c0,-42 34,-75 76,-75 41,0 75,33 75,75 0,-42 34,-75 75,-75 42,0 76,33 76,75 0,-42 33,-75 75,-75 42,0 75,33 75,75 0,42 -33,75 -75,75 -42,0 -75,-33 -75,-75 0,42 -34,75 -76,75 -41,0 -75,-33 -75,-75 0,42 -34,75 -75,75 -42,0 -76,-33 -76,-75zm528 0c0,-42 34,-75 75,-75 42,0 76,33 76,75 0,42 -34,75 -76,75 -41,0 -75,-33 -75,-75zm301 0c0,-42 34,-75 76,-75 41,0 75,33 75,75 0,42 -34,75 -75,75 -42,0 -76,-33 -76,-75zm226 0c0,-42 34,-75 76,-75 41,0 75,33 75,75 0,42 -34,75 -75,75 -42,0 -76,-33 -76,-75zm227 0c0,-42 33,-75 75,-75 42,0 75,33 75,75 0,42 -33,75 -75,75 -42,0 -75,-33 -75,-75zm138 -98c0,-42 34,-75 75,-75 42,0 76,33 76,75 0,42 -34,75 -76,75 -41,0 -75,-33 -75,-75zm-1709 249c0,-42 34,-76 76,-76 41,0 75,34 75,76 0,41 -34,75 -75,75 -42,0 -76,-34 -76,-75zm302 0c0,-42 33,-76 75,-76 42,0 76,34 76,76 0,-42 33,-76 75,-76 42,0 75,34 75,76 0,-42 34,-76 76,-76 41,0 75,34 75,76 0,41 -34,75 -75,75 -42,0 -76,-34 -76,-75 0,41 -33,75 -75,75 -42,0 -75,-34 -75,-75 0,41 -34,75 -76,75 -42,0 -75,-34 -75,-75zm527 0c0,-42 34,-76 76,-76 41,0 75,34 75,76 0,41 -34,75 -75,75 -42,0 -76,-34 -76,-75zm302 0c0,-42 34,-76 75,-76 42,0 76,34 76,76 0,41 -34,75 -76,75 -41,0 -75,-34 -75,-75zm226 0c0,-42 34,-76 75,-76 42,0 76,34 76,76l0 0 0 0c0,41 -34,75 -76,75 -41,0 -75,-34 -75,-75zm151 0c0,-42 34,-76 75,-76 42,0 76,34 76,76 0,41 -34,75 -76,75 -41,0 -75,-34 -75,-75zm-2666 -176c42,0 76,34 76,75 0,42 -34,76 -76,76 42,0 76,34 76,75 0,42 -34,76 -76,76 42,0 76,33 76,75 0,42 -34,75 -76,75 -41,0 -75,-33 -75,-75 0,-42 34,-75 75,-75 -41,0 -75,-34 -75,-76 0,-41 34,-75 75,-75 -41,0 -75,-34 -75,-76 0,-41 34,-75 75,-75zm0 528c42,0 76,34 76,75 0,42 -34,76 -76,76 -41,0 -75,-34 -75,-76 0,-41 34,-75 75,-75zm0 301c42,0 76,34 76,76 0,41 -34,75 -76,75 -41,0 -75,-34 -75,-75 0,-42 34,-76 75,-76zm0 226c42,0 76,34 76,76 0,41 -34,75 -76,75 -41,0 -75,-34 -75,-75 0,-42 34,-76 75,-76zm0 227c42,0 76,33 76,75 0,42 -34,75 -76,75l0 0 0 0c-41,0 -75,-33 -75,-75 0,-42 34,-75 75,-75zm0 150c42,0 76,34 76,76 0,41 -34,75 -76,75 -41,0 -75,-34 -75,-75 0,-42 34,-76 75,-76zm-150 -1721c41,0 75,34 75,76 0,41 -34,75 -75,75 -42,0 -76,-34 -76,-75 0,-42 34,-76 76,-76zm0 302c41,0 75,33 75,75 0,42 -34,75 -75,75 41,0 75,34 75,76 0,41 -34,75 -75,75 41,0 75,34 75,76 0,41 -34,75 -75,75 -42,0 -76,-34 -76,-75 0,-42 34,-76 76,-76 -42,0 -76,-34 -76,-75 0,-42 34,-76 76,-76 -42,0 -76,-33 -76,-75 0,-42 34,-75 76,-75zm0 527c41,0 75,34 75,76 0,41 -34,75 -75,75 -42,0 -76,-34 -76,-75 0,-42 34,-76 76,-76zm0 302c41,0 75,34 75,75 0,42 -34,76 -75,76 -42,0 -76,-34 -76,-76 0,-41 34,-75 76,-75zm0 226c41,0 75,34 75,75 0,42 -34,76 -75,76l0 0 0 0c-42,0 -76,-34 -76,-76 0,-41 34,-75 76,-75zm3360 -1954c42,0 75,33 75,75 0,42 -33,75 -75,75 42,0 75,34 75,76 0,41 -33,75 -75,75 42,0 75,34 75,75 0,42 -33,76 -75,76 -42,0 -75,-34 -75,-76 0,-41 33,-75 75,-75 -42,0 -75,-34 -75,-75 0,-42 33,-76 75,-76 -42,0 -75,-33 -75,-75 0,-42 33,-75 75,-75zm0 527c42,0 75,34 75,76 0,41 -33,75 -75,75 -42,0 -75,-34 -75,-75 0,-42 33,-76 75,-76zm0 302c42,0 75,33 75,75 0,42 -33,75 -75,75 -42,0 -75,-33 -75,-75 0,-42 33,-75 75,-75zm0 226c42,0 75,34 75,75 0,42 -33,76 -75,76 -42,0 -75,-34 -75,-76 0,-41 33,-75 75,-75zm0 226c42,0 75,34 75,75 0,42 -33,76 -75,76l0 0 0 0c-42,0 -75,-34 -75,-76 0,-41 33,-75 75,-75zm0 151c42,0 75,33 75,75 0,42 -33,75 -75,75 -42,0 -75,-33 -75,-75 0,-42 33,-75 75,-75zm-151 -1420c42,0 76,34 76,75 0,42 -34,76 -76,76 42,0 76,34 76,75 0,42 -34,76 -76,76 42,0 76,33 76,75 0,42 -34,75 -76,75 -41,0 -75,-33 -75,-75 0,-42 34,-75 75,-75 -41,0 -75,-34 -75,-76 0,-41 34,-75 75,-75 -41,0 -75,-34 -75,-76 0,-41 34,-75 75,-75zm0 528c42,0 76,33 76,75 0,42 -34,75 -76,75 -41,0 -75,-33 -75,-75 0,-42 34,-75 75,-75zm0 301c42,0 76,34 76,76 0,41 -34,75 -76,75 -41,0 -75,-34 -75,-75 0,-42 34,-76 75,-76zm0 226c42,0 76,34 76,76 0,41 -34,75 -76,75l0 0 0 0c-41,0 -75,-34 -75,-75 0,-42 34,-76 75,-76zm0 151c42,0 76,34 76,75 0,42 -34,76 -76,76 -41,0 -75,-34 -75,-76 0,-41 34,-75 75,-75zm-4979 -2587c41,0 75,33 75,75 0,42 -34,75 -75,75 41,0 75,34 75,76 0,41 -34,75 -75,75 41,0 75,34 75,75 0,42 -34,76 -75,76 -42,0 -76,-34 -76,-76 0,-41 34,-75 76,-75 -42,0 -76,-34 -76,-75 0,-42 34,-76 76,-76 -42,0 -76,-33 -76,-75 0,-42 34,-75 76,-75zm0 527c41,0 75,34 75,76 0,41 -34,75 -75,75 -42,0 -76,-34 -76,-75 0,-42 34,-76 76,-76zm0 302c41,0 75,33 75,75 0,42 -34,75 -75,75 -42,0 -76,-33 -76,-75 0,-42 34,-75 76,-75zm0 226c41,0 75,34 75,75 0,42 -34,76 -75,76 -42,0 -76,-34 -76,-76 0,-41 34,-75 76,-75zm0 226c41,0 75,34 75,75 0,42 -34,76 -75,76l0 0 0 0c-42,0 -76,-34 -76,-76 0,-41 34,-75 76,-75zm0 151c41,0 75,33 75,75 0,42 -34,75 -75,75 -42,0 -76,-33 -76,-75 0,-42 34,-75 76,-75zm-151 -1721c41,0 75,33 75,75 0,42 -34,75 -75,75 -42,0 -76,-33 -76,-75 0,-42 34,-75 76,-75zm0 301c41,0 75,34 75,75 0,42 -34,76 -75,76 41,0 75,34 75,75 0,42 -34,76 -75,76 41,0 75,33 75,75 0,42 -34,75 -75,75 -42,0 -76,-33 -76,-75 0,-42 34,-75 76,-75 -42,0 -76,-34 -76,-76 0,-41 34,-75 76,-75 -42,0 -76,-34 -76,-76 0,-41 34,-75 76,-75zm0 528c41,0 75,33 75,75 0,42 -34,76 -75,76 -42,0 -76,-34 -76,-76 0,-42 34,-75 76,-75zm0 301c41,0 75,34 75,76 0,41 -34,75 -75,75 -42,0 -76,-34 -76,-75 0,-42 34,-76 76,-76zm0 377c41,0 75,34 75,76 0,41 -34,75 -75,75 -42,0 -76,-34 -76,-75 0,-42 34,-76 76,-76z"/>
    <path class="fil3" d="M5964 680l375 0c303,0 551,248 551,551l0 375c0,303 -248,551 -551,551l-375 0c-303,0 -551,-248 -551,-551l0 -375c0,-303 248,-551 551,-551zm0 420l375 0c72,0 131,59 131,131l0 375c0,72 -59,131 -131,131l-375 0c-72,0 -130,-59 -130,-131l0 -375c0,-72 58,-131 130,-131zm0 -300l375 0c237,0 431,194 431,431l0 375c0,237 -194,431 -431,431l-375 0c-236,0 -430,-194 -430,-431l0 -375c0,-237 194,-431 430,-431z"/>
    <path class="fil3" d="M1232 5439l375 0c303,0 551,248 551,551l0 375c0,303 -248,551 -551,551l-375 0c-303,0 -551,-248 -551,-551l0 -375c0,-303 248,-551 551,-551zm0 420l375 0c72,0 131,59 131,131l0 375c0,72 -59,131 -131,131l-375 0c-72,0 -131,-59 -131,-131l0 -375c0,-72 59,-131 131,-131zm0 -299l375 0c237,0 431,193 431,430l0 375c0,237 -194,431 -431,431l-375 0c-237,0 -430,-194 -430,-431l0 -375c0,-237 193,-430 430,-430z"/>
   </g>
   <g>
    <path class="fil4" d="M3798 2514c829,0 1617,326 2203,912l69 69 -591 591 -70 -69c-428,-428 -1004,-667 -1611,-667 -606,0 -1182,239 -1611,667l-69 69 -592 -591 69 -69c586,-586 1374,-912 2203,-912zm0 2379c407,0 736,329 736,736 0,406 -329,736 -736,736 -406,0 -736,-330 -736,-736 0,-407 330,-736 736,-736zm0 -3661c1170,0 2282,460 3109,1287l69 70 -591 591 -69 -69c-670,-670 -1570,-1043 -2518,-1043 -948,0 -1848,373 -2518,1043l-69 69 -591 -591 69 -70c827,-827 1939,-1287 3109,-1287zm0 2564c488,0 952,192 1296,536l69 70 -591 591 -69 -69c-188,-188 -440,-292 -705,-292 -265,0 -517,104 -705,292l-69 69 -591 -591 69 -70c345,-344 808,-536 1296,-536z"/>
   </g>
   <path class="fil5" d="M3798 2611c-833,0 -1587,338 -2133,884l453 453c430,-430 1024,-696 1680,-696 656,0 1250,266 1681,696l453 -453c-546,-546 -1301,-884 -2134,-884zm0 2379c353,0 638,286 638,639 0,352 -285,638 -638,638 -352,0 -638,-286 -638,-638 0,-353 286,-639 638,-639zm0 -3661c-1187,0 -2262,482 -3040,1260l453 453c662,-662 1577,-1072 2587,-1072 1010,0 1925,410 2587,1072l453 -453c-778,-778 -1853,-1260 -3040,-1260zm0 2564c-479,0 -913,194 -1227,509l453 453c198,-198 472,-321 774,-321 302,0 576,123 774,321l453 -453c-314,-315 -748,-509 -1227,-509z"/>
  </g>
 </g>
</svg>
