<?xml version="1.0" encoding="UTF-8"?>
<!DOCTYPE svg PUBLIC "-//W3C//DTD SVG 1.1//EN" "http://www.w3.org/Graphics/SVG/1.1/DTD/svg11.dtd">
<!-- Creator: CorelDRAW X7 -->
<svg xmlns="http://www.w3.org/2000/svg" xml:space="preserve" width="76.2641mm" height="123.332mm" version="1.1" style="shape-rendering:geometricPrecision; text-rendering:geometricPrecision; image-rendering:optimizeQuality; fill-rule:evenodd; clip-rule:evenodd"
viewBox="0 0 11762 19021"
 xmlns:xlink="http://www.w3.org/1999/xlink">
 <defs>
  <style type="text/css">
   <![CDATA[
    .fil4 {fill:#FEFEFE}
    .fil2 {fill:#2B2A29}
    .fil0 {fill:#2B2A29}
    .fil3 {fill:#6BC7E4}
    .fil5 {fill:#00A0E3}
    .fil1 {fill:#00A0E3}
   ]]>
  </style>
 </defs>
 <g id="Layer_x0020_1">
  <metadata id="CorelCorpID_0Corel-Layer"/>
  <g id="_313342264">
   <path class="fil0" d="M727 2280l0 -1553 1553 0 0 -727 -2280 0 0 2280 727 0zm10308 0l727 0 0 -2280 -2280 0 0 727 1553 0 0 1553zm-1553 8755l0 727 2280 0 0 -2280 -727 0 0 1553 -1553 0zm-8755 -1553l-727 0 0 2280 2280 0 0 -727 -1553 0 0 -1553z"/>
   <path class="fil1" d="M3040 14085c-56,266 -120,541 -193,823l-319 1281 -521 0 -908 -2855 557 0 344 1137c104,357 188,680 252,968l13 0c62,-309 135,-628 217,-953l295 -1152 538 0 295 1152c82,322 155,641 218,953l12 0c79,-341 162,-663 252,-968l344 -1137 557 0 -907 2855 -521 0 -320 -1281c-73,-288 -137,-563 -193,-823l-12 0zm2284 36l507 0 0 2068 -507 0 0 -2068zm-13 -1023l534 0 0 546 -534 0 0 -546zm1068 1792l941 0 0 459 -941 0 0 -459zm2063 1299l-525 0 0 -2855 1820 0 0 437 -1295 0 0 739 1108 0 0 437 -1108 0 0 1242zm1700 -2068l507 0 0 2068 -507 0 0 -2068zm-13 -1023l534 0 0 546 -534 0 0 -546z"/>
   <path class="fil2" d="M1386 17388c0,64 13,116 39,158 26,42 60,76 104,103 44,26 94,49 151,66 58,17 118,33 180,49 84,20 166,43 247,68 81,24 153,59 217,102 63,44 115,101 154,171 39,70 58,160 58,271 0,112 -21,208 -63,290 -43,81 -102,148 -177,201 -75,52 -163,91 -266,116 -103,25 -215,38 -336,38 -57,0 -114,-3 -173,-10 -59,-7 -115,-17 -168,-28 -54,-12 -102,-26 -145,-41 -43,-15 -77,-30 -102,-45l0 -240c39,19 82,36 131,52 48,16 99,30 151,41 52,11 103,20 156,27 53,6 103,9 150,9 75,0 147,-7 215,-19 69,-14 129,-35 181,-65 51,-30 92,-72 123,-124 30,-52 45,-117 45,-196 0,-65 -13,-118 -40,-160 -26,-42 -61,-77 -105,-105 -44,-27 -95,-50 -153,-67 -58,-17 -118,-33 -181,-48 -85,-20 -167,-42 -247,-66 -80,-24 -152,-58 -215,-101 -62,-43 -113,-99 -151,-167 -39,-68 -58,-155 -58,-260 0,-110 20,-205 60,-284 41,-80 95,-146 164,-198 69,-51 148,-90 237,-114 90,-25 185,-37 287,-37 115,0 222,11 322,33 100,22 191,51 275,86l0 245c-90,-37 -182,-68 -278,-92 -95,-24 -198,-36 -306,-37 -82,0 -153,9 -214,26 -60,18 -111,43 -150,77 -40,32 -70,72 -89,119 -20,47 -30,99 -30,156zm1882 367l1130 0 0 -937 265 0 0 2163 -265 0 0 -987 -1130 0 0 987 -265 0 0 -2163 265 0 0 937zm1730 1226l879 -2163 229 0 883 2163 -287 0 -254 -649 -912 0 -255 649 -283 0zm992 -1829c-97,270 -190,515 -278,735l-83 206 724 0 -83 -206c-89,-224 -180,-469 -273,-735l-7 0zm1595 935l0 894 -265 0 0 -2163 562 0c95,0 175,3 241,10 67,7 127,18 182,33 151,41 267,111 346,210 80,98 120,222 120,370 0,87 -14,165 -42,234 -28,69 -67,130 -118,180 -51,51 -111,93 -182,125 -71,32 -149,56 -235,71l0 7 640 923 -265 0 -666 -894 -318 0zm0 -1031l0 792 261 0c80,0 149,-3 207,-8 57,-5 108,-15 153,-29 92,-28 163,-73 212,-134 50,-61 75,-142 75,-241 -1,-93 -25,-167 -71,-224 -47,-56 -111,-97 -193,-122 -39,-12 -85,-20 -139,-25 -54,-6 -122,-9 -206,-9l-299 0zm1961 1687l1110 0 0 238 -1375 0 0 -2163 1315 0 0 238 -1050 0 0 699 934 0 0 239 -934 0 0 749z"/>
   <g>
    <path class="fil3" d="M1908 1053l581 0c469,0 853,384 853,853l0 581c0,469 -384,853 -853,853l-581 0c-469,0 -853,-384 -853,-853l0 -581c0,-469 384,-853 853,-853zm0 650l581 0c111,0 202,92 202,203l0 581c0,111 -91,202 -202,202l-581 0c-111,0 -203,-91 -203,-202l0 -581c0,-111 92,-203 203,-203zm0 -464l581 0c367,0 667,300 667,667l0 581c0,366 -300,667 -667,667l-581 0c-367,0 -667,-301 -667,-667l0 -581c0,-367 300,-667 667,-667z"/>
    <path class="fil3" d="M1551 6276l0 0 0 0c65,0 117,-52 117,-117 0,-64 -52,-117 -117,-117 -64,0 -117,53 -117,117 0,65 53,117 117,117zm1845 -2963c0,-64 52,-117 116,-117 65,0 117,53 117,117 0,65 -52,117 -117,117 -64,0 -116,-52 -116,-117zm467 0c0,-64 52,-117 116,-117 65,0 117,53 117,117 0,65 -52,117 -117,117 -64,0 -116,-52 -116,-117zm350 0c0,-64 52,-117 116,-117 65,0 117,53 117,117 0,65 -52,117 -117,117 -64,0 -116,-52 -116,-117zm-798 234c0,-65 52,-117 117,-117 64,0 117,52 117,117 0,64 -53,116 -117,116 -65,0 -117,-52 -117,-116zm467 0c0,-65 52,-117 117,-117 64,0 116,52 116,117 0,64 -52,116 -116,116 -65,0 -117,-52 -117,-116zm350 0c0,-65 52,-117 117,-117 64,0 117,52 117,117 0,64 -53,116 -117,116 -65,0 -117,-52 -117,-116zm2582 868c0,-64 52,-116 116,-116 65,0 117,52 117,116 0,65 -52,117 -117,117 -64,0 -116,-52 -116,-117zm466 0c0,-64 53,-116 117,-116 65,0 117,52 117,116 0,65 -52,117 -117,117 -64,0 -117,-52 -117,-117zm351 0c0,-64 52,-116 116,-116 65,0 117,52 117,116 0,65 -52,117 -117,117 -64,0 -116,-52 -116,-117zm-798 234c0,-65 52,-117 117,-117 64,0 117,52 117,117 0,64 -53,116 -117,116 -65,0 -117,-52 -117,-116zm467 0c0,-65 52,-117 117,-117 64,0 116,52 116,117 0,64 -52,116 -116,116 -65,0 -117,-52 -117,-116zm350 0c0,-65 52,-117 117,-117 64,0 117,52 117,117 0,64 -53,116 -117,116 -65,0 -117,-52 -117,-116zm-5443 -938c65,0 117,53 117,117 0,65 -52,117 -117,117 65,0 117,52 117,117 0,64 -52,116 -117,116 65,0 117,53 117,117 0,64 -52,117 -117,117 -64,0 -116,-53 -116,-117 0,-64 52,-117 116,-117 -64,0 -116,-52 -116,-116 0,-65 52,-117 116,-117 -64,0 -116,-52 -116,-117 0,-64 52,-117 116,-117zm0 817c65,0 117,53 117,117 0,65 -52,117 -117,117 -64,0 -116,-52 -116,-117 0,-64 52,-117 116,-117zm0 467c65,0 117,53 117,117 0,64 -52,117 -117,117 -64,0 -116,-53 -116,-117 0,-64 52,-117 116,-117zm2176 866c0,-64 53,-117 117,-117 65,0 117,53 117,117 0,64 -52,117 -117,117 -64,0 -117,-53 -117,-117zm20 233c0,-64 52,-116 117,-116 64,0 116,52 116,116 0,65 -52,117 -116,117 -65,0 -117,-52 -117,-117zm461 -422c64,0 116,52 116,117 0,64 -52,116 -116,116l0 0 0 0c-65,0 -117,-52 -117,-116 0,-65 52,-117 117,-117zm0 233c64,0 116,53 116,117 0,65 -52,117 -116,117 -65,0 -117,-52 -117,-117 0,-64 52,-117 117,-117zm5474 2184c65,0 117,52 117,116 0,65 -52,117 -117,117 -64,0 -116,-52 -116,-117 0,-64 52,-116 116,-116zm-280 31c64,0 117,52 117,117 0,64 -53,116 -117,116 -65,0 -117,-52 -117,-116 0,-65 52,-117 117,-117zm532 -640c65,0 117,53 117,117 0,65 -52,117 -117,117 -64,0 -116,-52 -116,-117 0,-64 52,-117 116,-117zm0 351c65,0 117,52 117,116 0,65 -52,117 -117,117l0 0 0 0c-64,0 -116,-52 -116,-117 0,-64 52,-116 116,-116zm0 233c65,0 117,52 117,117 0,64 -52,116 -117,116 -64,0 -116,-52 -116,-116 0,-65 52,-117 116,-117zm-280 -1486c64,0 117,52 117,117 0,64 -53,116 -117,116 -65,0 -117,-52 -117,-116 0,-65 52,-117 117,-117zm0 350c64,0 117,52 117,117 0,64 -53,117 -117,117 -65,0 -117,-53 -117,-117 0,-65 52,-117 117,-117zm0 350c64,0 117,52 117,117 0,64 -53,117 -117,117l0 0 0 0c-65,0 -117,-53 -117,-117 0,-65 52,-117 117,-117zm0 234c64,0 117,52 117,116 0,65 -53,117 -117,117 -65,0 -117,-52 -117,-117 0,-64 52,-116 117,-116zm-4437 2352c0,-65 52,-117 116,-117 65,0 117,52 117,117 0,64 -52,116 -117,116 -64,0 -116,-52 -116,-116zm19 233c0,-65 52,-117 117,-117 64,0 117,52 117,117 0,64 -53,117 -117,117 -65,0 -117,-53 -117,-117zm11 -499c0,-65 53,-117 117,-117 65,0 117,52 117,117 0,-65 52,-117 117,-117 64,0 116,52 116,117 0,64 -52,117 -116,117 -65,0 -117,-53 -117,-117 0,64 -52,117 -117,117 -64,0 -117,-53 -117,-117zm-3417 -2317c0,-64 52,-116 116,-116 65,0 117,52 117,116 0,65 -52,117 -117,117 -64,0 -116,-52 -116,-117zm19 234c0,-65 52,-117 117,-117 64,0 117,52 117,117 0,64 -53,116 -117,116 -65,0 -117,-52 -117,-116zm1396 1379c0,-64 52,-117 117,-117 64,0 116,53 116,117 0,65 -52,117 -116,117 -65,0 -117,-52 -117,-117zm19 234c0,-65 53,-117 117,-117 64,0 117,52 117,117 0,64 -53,116 -117,116 -64,0 -117,-52 -117,-116zm1551 162c0,-64 52,-117 117,-117 64,0 116,53 116,117 0,65 -52,117 -116,117 -65,0 -117,-52 -117,-117zm19 233c0,-64 53,-116 117,-116 65,0 117,52 117,116 0,65 -52,117 -117,117 -64,0 -117,-52 -117,-117zm2234 -424c0,-65 52,-117 116,-117 65,0 117,52 117,117 0,64 -52,117 -117,117 -64,0 -116,-53 -116,-117zm19 233c0,-64 52,-116 117,-116 64,0 117,52 117,116 0,65 -53,117 -117,117 -65,0 -117,-52 -117,-117zm1605 914c0,-65 53,-117 117,-117 65,0 117,52 117,117 0,64 -52,117 -117,117 -64,0 -117,-53 -117,-117zm20 233c0,-64 52,-116 117,-116 64,0 116,52 116,116 0,65 -52,117 -116,117 -65,0 -117,-52 -117,-117zm573 -506c0,-65 53,-117 117,-117 64,0 117,52 117,117 0,64 -53,116 -117,116 -64,0 -117,-52 -117,-116zm20 233c0,-64 52,-117 116,-117 65,0 117,53 117,117 0,65 -52,117 -117,117 -64,0 -116,-52 -116,-117zm-913 -3530c0,-64 52,-117 116,-117 65,0 117,53 117,117 0,65 -52,117 -117,117 -64,0 -116,-52 -116,-117zm-243 -273c0,-64 53,-117 117,-117 65,0 117,53 117,117 0,-64 52,-117 117,-117 64,0 116,53 116,117 0,65 -52,117 -116,117 -65,0 -117,-52 -117,-117 0,65 -52,117 -117,117 -64,0 -117,-52 -117,-117zm584 0c0,-52 34,-96 81,-111 -52,-12 -92,-58 -92,-114 0,-64 53,-117 117,-117 65,0 117,53 117,117 0,52 -34,96 -81,111 52,12 91,58 91,114 0,65 -52,117 -116,117 -65,0 -117,-52 -117,-117zm467 0c0,-64 52,-117 117,-117 64,0 116,53 116,117 0,65 -52,117 -116,117 -65,0 -117,-52 -117,-117zm350 0c0,-64 52,-117 117,-117 64,0 116,53 116,117 0,65 -52,117 -116,117 -65,0 -117,-52 -117,-117zm380 -121c65,0 117,52 117,117 0,64 -52,116 -117,116 -64,0 -116,-52 -116,-116 0,-65 52,-117 116,-117zm-2617 32c0,-65 53,-117 117,-117 65,0 117,52 117,117 0,-65 52,-117 117,-117 64,0 116,52 116,117 0,64 -52,116 -116,116 -65,0 -117,-52 -117,-116 0,64 -52,116 -117,116 -64,0 -117,-52 -117,-116zm20 233c0,-64 52,-117 117,-117 64,0 116,53 116,117 0,-64 53,-117 117,-117 64,0 117,53 117,117 0,65 -53,117 -117,117 -64,0 -117,-52 -117,-117 0,65 -52,117 -116,117 -65,0 -117,-52 -117,-117zm-1065 750c0,-65 52,-117 117,-117 64,0 116,52 116,117 0,-65 53,-117 117,-117 65,0 117,52 117,117 0,64 -52,116 -117,116 -64,0 -117,-52 -117,-116 0,64 -52,116 -116,116 -65,0 -117,-52 -117,-116zm19 233c0,-64 53,-117 117,-117 65,0 117,53 117,117 0,-64 52,-117 117,-117 64,0 116,53 116,117 0,65 -52,117 -116,117 -65,0 -117,-52 -117,-117 0,65 -52,117 -117,117 -64,0 -117,-52 -117,-117zm1578 1617c0,-64 53,-116 117,-116 65,0 117,52 117,116 0,-64 52,-116 117,-116 64,0 116,52 116,116 0,65 -52,117 -116,117 -65,0 -117,-52 -117,-117 0,65 -52,117 -117,117 -64,0 -117,-52 -117,-117zm20 234c0,-65 52,-117 117,-117 64,0 116,52 116,117 0,-65 53,-117 117,-117 64,0 117,52 117,117 0,64 -53,117 -117,117 -64,0 -117,-53 -117,-117 0,64 -52,117 -116,117 -65,0 -117,-53 -117,-117zm-827 -534c0,-64 53,-116 117,-116 64,0 117,52 117,116 0,-64 52,-116 116,-116 65,0 117,52 117,116 0,-64 52,-116 117,-116 64,0 117,52 117,116 0,65 -53,117 -117,117 -65,0 -117,-52 -117,-117 0,65 -52,117 -117,117 -64,0 -116,-52 -116,-117 0,65 -53,117 -117,117 -64,0 -117,-52 -117,-117zm817 0c0,-64 53,-116 117,-116 64,0 117,52 117,116 0,65 -53,117 -117,117 -64,0 -117,-52 -117,-117zm467 0c0,-64 52,-116 117,-116 64,0 117,52 117,116 0,65 -53,117 -117,117 -65,0 -117,-52 -117,-117zm350 0c0,-64 53,-116 117,-116 64,0 117,52 117,116 0,65 -53,117 -117,117 -64,0 -117,-52 -117,-117zm-4860 -2310c64,0 116,52 116,117 0,64 -52,116 -116,116 -65,0 -117,-52 -117,-116 0,-65 52,-117 117,-117zm0 350c64,0 116,52 116,117 0,64 -52,117 -116,117 -65,0 -117,-53 -117,-117 0,-65 52,-117 117,-117zm-234 -331c65,0 117,53 117,117 0,65 -52,117 -117,117 -64,0 -117,-52 -117,-117 0,-64 53,-117 117,-117zm0 351c65,0 117,52 117,116 0,65 -52,117 -117,117 -64,0 -117,-52 -117,-117 0,-64 53,-116 117,-116zm-1808 -1592c65,0 117,52 117,117 0,64 -52,116 -117,116 -64,0 -116,-52 -116,-116 0,-65 52,-117 116,-117zm0 350c65,0 117,52 117,117 0,64 -52,117 -117,117 -64,0 -116,-53 -116,-117 0,-65 52,-117 116,-117zm-233 -331c64,0 117,53 117,117 0,65 -53,117 -117,117 -64,0 -117,-52 -117,-117 0,-64 53,-117 117,-117zm0 351c64,0 117,52 117,116 0,65 -53,117 -117,117 -64,0 -117,-52 -117,-117 0,-64 53,-116 117,-116zm711 -15c65,0 117,52 117,117 0,64 -52,116 -117,116 -64,0 -116,-52 -116,-116 0,-65 52,-117 116,-117zm0 350c65,0 117,52 117,117 0,64 -52,117 -117,117 -64,0 -116,-53 -116,-117 0,-65 52,-117 116,-117zm-233 -331c64,0 117,53 117,117 0,65 -53,117 -117,117 -65,0 -117,-52 -117,-117 0,-64 52,-117 117,-117zm0 351c64,0 117,52 117,116 0,65 -53,117 -117,117 -65,0 -117,-52 -117,-117 0,-64 52,-116 117,-116zm3320 -4241c-65,0 -117,52 -117,117 0,64 52,116 117,116 64,0 117,-52 117,-116 0,-65 -53,-117 -117,-117zm-112 52c0,-64 -52,-116 -116,-116 -65,0 -117,52 -117,116 0,-64 -52,-116 -117,-116 -64,0 -116,52 -116,116 0,-64 -53,-116 -117,-116 -65,0 -117,52 -117,116 0,65 52,117 117,117 64,0 117,-52 117,-117 0,65 52,117 116,117 65,0 117,-52 117,-117 0,65 52,117 117,117 64,0 116,-52 116,-117zm-817 0c0,-64 -52,-116 -116,-116 -65,0 -117,52 -117,116 0,65 52,117 117,117 64,0 116,-52 116,-117zm-466 0c0,-64 -53,-116 -117,-116 -65,0 -117,52 -117,116 0,65 52,117 117,117 64,0 117,-52 117,-117zm-351 0c0,-64 -52,-116 -116,-116 -65,0 -117,52 -117,116 0,65 52,117 117,117 64,0 116,-52 116,-117zm2856 -162c-65,0 -117,52 -117,116 0,65 52,117 117,117 -65,0 -117,52 -117,117 0,64 52,117 117,117 64,0 116,-53 116,-117 0,-65 -52,-117 -116,-117 64,0 116,-52 116,-117 0,-64 -52,-116 -116,-116zm1191 -194c0,-64 -52,-116 -117,-116 -64,0 -116,52 -116,116 0,-64 -53,-116 -117,-116 -64,0 -117,52 -117,116 0,-64 -52,-116 -116,-116 -65,0 -117,52 -117,116 0,65 52,117 117,117 64,0 116,-52 116,-117 0,65 53,117 117,117 64,0 117,-52 117,-117 0,65 52,117 116,117 65,0 117,-52 117,-117zm-817 0c0,-64 -52,-116 -117,-116 -64,0 -116,52 -116,116 0,65 52,117 116,117 65,0 117,-52 117,-117zm-467 0c0,-64 -52,-116 -116,-116 -65,0 -117,52 -117,116 0,65 52,117 117,117 64,0 116,-52 116,-117zm-350 0c0,-64 -52,-116 -117,-116 -64,0 -116,52 -116,116 0,65 52,117 116,117 65,0 117,-52 117,-117zm1615 234c0,-65 -53,-117 -117,-117 -64,0 -117,52 -117,117 0,-65 -52,-117 -116,-117 -65,0 -117,52 -117,117 0,-65 -52,-117 -117,-117 -64,0 -117,52 -117,117 0,64 53,117 117,117 65,0 117,-53 117,-117 0,64 52,117 117,117 64,0 116,-53 116,-117 0,64 53,117 117,117 64,0 117,-53 117,-117zm-817 0c0,-65 -53,-117 -117,-117 -65,0 -117,52 -117,117 0,64 52,117 117,117 64,0 117,-53 117,-117zm-467 0c0,-65 -52,-117 -117,-117 -64,0 -117,52 -117,117 0,64 53,117 117,117 65,0 117,-53 117,-117zm-350 0c0,-65 -53,-117 -117,-117 -64,0 -117,52 -117,117 0,64 53,117 117,117 64,0 117,-53 117,-117zm-3706 6181c64,0 116,52 116,116 1,-64 53,-116 117,-116 64,0 117,52 117,117 0,64 -53,117 -117,117 -64,0 -116,-52 -117,-116 0,64 -52,116 -116,116l0 0 0 0c-65,0 -117,-53 -117,-117 0,-65 52,-117 117,-117zm0 234c64,0 116,52 116,116 0,65 -52,117 -116,117 -65,0 -117,-52 -117,-117 0,-64 52,-116 117,-116zm-929 -902c65,0 117,52 117,117 0,64 -52,116 -117,116l0 0 0 0c-64,0 -117,-52 -117,-116 0,-65 53,-117 117,-117zm0 233c65,0 117,53 117,117 0,65 -52,117 -117,117 -64,0 -117,-52 -117,-117 0,-64 53,-117 117,-117zm1904 2580c0,-65 53,-117 117,-117 65,0 117,52 117,117 0,64 -52,116 -117,116 -64,0 -117,-52 -117,-116zm351 0c0,-65 52,-117 116,-117 10,0 19,1 28,3 -9,-16 -14,-36 -14,-56 0,-64 52,-117 116,-117 65,0 117,53 117,117 0,65 -52,117 -117,117 -9,0 -18,-1 -27,-4 9,17 14,36 14,57 0,64 -52,116 -117,116 -64,0 -116,-52 -116,-116zm-331 233c0,-64 52,-117 117,-117 64,0 116,53 116,117 0,64 -52,117 -116,117 -65,0 -117,-53 -117,-117zm350 0c0,-64 52,-117 117,-117 64,0 116,53 116,117 0,64 -52,117 -116,117 -65,0 -117,-53 -117,-117zm2115 -725c0,-64 53,-117 117,-117 64,0 117,53 117,117 0,65 -53,117 -117,117 -64,0 -117,-52 -117,-117zm350 0c0,-64 53,-117 117,-117 65,0 117,53 117,117 0,65 -52,117 -117,117 -64,0 -117,-52 -117,-117zm-330 234c0,-65 52,-117 116,-117 65,0 117,52 117,117 0,64 -52,116 -117,116 -64,0 -116,-52 -116,-116zm350 0c0,-65 52,-117 117,-117 64,0 116,52 116,117 0,64 -52,116 -116,116 -65,0 -117,-52 -117,-116zm1818 -5979c64,0 117,52 117,117 0,64 -53,116 -117,116 64,0 117,52 117,117 0,64 -53,117 -117,117 -65,0 -117,-53 -117,-117 0,-65 52,-117 117,-117 -65,0 -117,-52 -117,-116 0,-65 52,-117 117,-117zm0 583c64,0 117,53 117,117 0,65 -53,117 -117,117 -65,0 -117,-52 -117,-117 0,-64 52,-117 117,-117zm111 -531c0,-64 52,-116 117,-116 64,0 117,52 117,116 0,-64 52,-116 116,-116 65,0 117,52 117,116 0,-64 52,-116 117,-116 64,0 117,52 117,116 0,65 -53,117 -117,117 -65,0 -117,-52 -117,-117 0,65 -52,117 -117,117 -64,0 -116,-52 -116,-117 0,65 -53,117 -117,117 -65,0 -117,-52 -117,-117zm817 0c0,-64 52,-116 117,-116 64,0 117,52 117,116 0,65 -53,117 -117,117 -65,0 -117,-52 -117,-117zm467 0c0,-64 52,-116 117,-116 64,0 117,52 117,116 0,65 -53,117 -117,117 -65,0 -117,-52 -117,-117zm350 0c0,-64 52,-116 117,-116 64,0 117,52 117,116 0,65 -53,117 -117,117 -65,0 -117,-52 -117,-117zm-587 843c65,0 117,52 117,117 0,64 -52,117 -117,117 -64,0 -116,-53 -116,-117 0,-65 52,-117 116,-117zm-233 -447c64,0 117,52 117,116 0,65 -53,117 -117,117 -65,0 -117,-52 -117,-117 0,-64 52,-116 117,-116zm-3232 -1534c64,0 117,52 117,117 0,64 -53,117 -117,117 64,0 117,52 117,116 0,65 -53,117 -117,117 -64,0 -117,-52 -117,-117 0,-64 53,-116 117,-116 -64,0 -117,-53 -117,-117 0,-65 53,-117 117,-117zm0 584c64,0 117,52 117,116 0,65 -53,117 -117,117 -64,0 -117,-52 -117,-117 0,-64 53,-116 117,-116zm111 -531c0,-65 53,-117 117,-117 65,0 117,52 117,117 0,-65 52,-117 117,-117 64,0 116,52 116,117 0,-65 53,-117 117,-117 64,0 117,52 117,117 0,64 -53,116 -117,116 -64,0 -117,-52 -117,-116 0,64 -52,116 -116,116 -65,0 -117,-52 -117,-116 0,64 -52,116 -117,116 -64,0 -117,-52 -117,-116zm817 0c0,-65 53,-117 117,-117 65,0 117,52 117,117 0,64 -52,116 -117,116 -64,0 -117,-52 -117,-116zm467 0c0,-65 53,-117 117,-117 64,0 117,52 117,117 0,64 -53,116 -117,116 -64,0 -117,-52 -117,-116zm350 0c0,-65 53,-117 117,-117 65,0 117,52 117,117 0,64 -52,116 -117,116 -64,0 -117,-52 -117,-116zm-587 842c65,0 117,53 117,117 0,65 -52,117 -117,117 -64,0 -116,-52 -116,-117 0,-64 52,-117 116,-117zm-233 -447c65,0 117,52 117,117 0,64 -52,117 -117,117 -64,0 -117,-53 -117,-117 0,-65 53,-117 117,-117zm-1806 2658c65,0 117,53 117,117 0,65 -52,117 -117,117 65,0 117,52 117,117 0,64 -52,116 -117,116 -64,0 -116,-52 -116,-116 0,-65 52,-117 116,-117 -64,0 -116,-52 -116,-117 0,-64 52,-117 116,-117zm0 584c65,0 117,52 117,117 0,64 -52,116 -117,116 -64,0 -116,-52 -116,-116 0,-65 52,-117 116,-117zm112 -531c0,-65 52,-117 117,-117 64,0 116,52 116,117 0,-65 53,-117 117,-117 64,0 117,52 117,117 0,-65 52,-117 116,-117 65,0 117,52 117,117 0,64 -52,117 -117,117 -64,0 -116,-53 -116,-117 0,64 -53,117 -117,117 -64,0 -117,-53 -117,-117 0,64 -52,117 -116,117 -65,0 -117,-53 -117,-117zm817 0c0,-35 15,-66 39,-87 -15,7 -32,11 -50,11 -64,0 -117,-52 -117,-117 0,-64 53,-116 117,-116 64,0 117,52 117,116 0,35 -15,66 -39,87 15,-7 32,-11 50,-11 64,0 116,52 116,117 0,64 -52,117 -116,117 -65,0 -117,-53 -117,-117zm467 0c0,-65 52,-117 116,-117 65,0 117,52 117,117 0,64 -52,117 -117,117 -64,0 -116,-53 -116,-117zm350 0c0,-65 52,-117 117,-117 64,0 116,52 116,117 0,64 -52,117 -116,117 -65,0 -117,-53 -117,-117zm-587 843c64,0 117,52 117,116 0,65 -53,117 -117,117 -65,0 -117,-52 -117,-117 0,-64 52,-116 117,-116zm-233 -448c64,0 116,53 116,117 0,65 -52,117 -116,117 -65,0 -117,-52 -117,-117 0,-64 52,-117 117,-117zm-3323 -1628c65,0 117,53 117,117 0,64 -52,117 -117,117 65,0 117,52 117,116 0,65 -52,117 -117,117 -64,0 -116,-52 -116,-117 0,-64 52,-116 116,-116 -64,0 -116,-53 -116,-117 0,-64 52,-117 116,-117zm0 584c65,0 117,52 117,117 0,64 -52,116 -117,116 -64,0 -116,-52 -116,-116 0,-65 52,-117 116,-117zm112 -531c0,-65 52,-117 116,-117 65,0 117,52 117,117 0,-65 52,-117 117,-117 64,0 117,52 117,117 0,-65 52,-117 116,-117 65,0 117,52 117,117 0,64 -52,116 -117,116 -64,0 -116,-52 -116,-116 0,64 -53,116 -117,116 -65,0 -117,-52 -117,-116 0,64 -52,116 -117,116 -64,0 -116,-52 -116,-116zm817 0c0,-65 52,-117 116,-117 65,0 117,52 117,117 0,64 -52,116 -117,116 -64,0 -116,-52 -116,-116zm467 0c0,-65 52,-117 116,-117 65,0 117,52 117,117 0,64 -52,116 -117,116 -64,0 -116,-52 -116,-116zm350 0c0,-65 52,-117 116,-117 65,0 117,52 117,117 0,64 -52,116 -117,116 -64,0 -116,-52 -116,-116zm-587 843c64,0 116,52 116,116 0,65 -52,117 -116,117 -65,0 -117,-52 -117,-117 0,-64 52,-116 117,-116zm-234 -448c65,0 117,52 117,117 0,64 -52,117 -117,117 -64,0 -116,-53 -116,-117 0,-65 52,-117 116,-117zm3373 3168c65,0 117,53 117,117 0,65 -52,117 -117,117 65,0 117,52 117,117 0,64 -52,116 -117,116 65,0 117,53 117,117 0,64 -52,117 -117,117 -64,0 -117,-53 -117,-117 0,-64 53,-117 117,-117 -64,0 -117,-52 -117,-116 0,-65 53,-117 117,-117 -64,0 -117,-52 -117,-117 0,-64 53,-117 117,-117zm0 817c65,0 117,53 117,117 0,65 -52,117 -117,117 -64,0 -117,-52 -117,-117 0,-64 53,-117 117,-117zm0 467c65,0 117,53 117,117 0,64 -52,117 -117,117 -64,0 -117,-53 -117,-117 0,-64 53,-117 117,-117zm0 350c65,0 117,53 117,117 0,65 -52,117 -117,117l0 0 0 0c-64,0 -117,-52 -117,-117 0,-64 53,-117 117,-117zm0 234c65,0 117,52 117,117 0,64 -52,116 -117,116 -64,0 -117,-52 -117,-116 0,-65 53,-117 117,-117zm219 -4598c64,0 116,52 116,116 0,65 -52,117 -116,117 64,0 116,52 116,117 0,64 -52,117 -116,117 64,0 116,52 116,116 0,65 -52,117 -116,117 -65,0 -117,-52 -117,-117 0,-64 52,-116 117,-116 -65,0 -117,-53 -117,-117 0,-65 52,-117 117,-117 -65,0 -117,-52 -117,-117 0,-64 52,-116 117,-116zm0 817c64,0 116,52 116,116 0,65 -52,117 -116,117 -65,0 -117,-52 -117,-117 0,-64 52,-116 117,-116zm0 467c64,0 116,52 116,116 0,65 -52,117 -116,117 -65,0 -117,-52 -117,-117 0,-64 52,-116 117,-116zm0 350c64,0 116,52 116,116 0,65 -52,117 -116,117l0 0 0 0c-65,0 -117,-52 -117,-117 0,-64 52,-116 117,-116zm0 233c64,0 116,52 116,117 0,64 -52,117 -116,117 -65,0 -117,-53 -117,-117 0,-65 52,-117 117,-117zm819 -4243c64,0 116,52 116,117 0,64 -52,117 -116,117 64,0 116,52 116,116 0,65 -52,117 -116,117 64,0 116,52 116,117 0,64 -52,116 -116,116 -65,0 -117,-52 -117,-116 0,-65 52,-117 117,-117 -65,0 -117,-52 -117,-117 0,-64 52,-116 117,-116 -65,0 -117,-53 -117,-117 0,-65 52,-117 117,-117zm0 817c64,0 116,52 116,117 0,64 -52,117 -116,117 -65,0 -117,-53 -117,-117 0,-65 52,-117 117,-117zm0 467c64,0 116,52 116,117 0,64 -52,116 -116,116 -65,0 -117,-52 -117,-116 0,-65 52,-117 117,-117zm0 350c64,0 116,52 116,117 0,64 -52,117 -116,117l0 0 0 0c-65,0 -117,-53 -117,-117 0,-65 52,-117 117,-117zm0 234c64,0 116,52 116,116 0,65 -52,117 -116,117 -65,0 -117,-52 -117,-117 0,-64 52,-116 117,-116zm-2021 -1322c64,0 117,53 117,117 0,64 -53,117 -117,117 64,0 117,52 117,116 0,65 -53,117 -117,117 64,0 117,52 117,117 0,64 -53,117 -117,117 -64,0 -117,-53 -117,-117 0,-65 53,-117 117,-117 -64,0 -117,-52 -117,-117 0,-64 53,-116 117,-116 -64,0 -117,-53 -117,-117 0,-64 53,-117 117,-117zm0 817c64,0 117,53 117,117 0,64 -53,117 -117,117 -64,0 -117,-53 -117,-117 0,-64 53,-117 117,-117zm0 467c64,0 117,52 117,117 0,64 -53,117 -117,117 -64,0 -117,-53 -117,-117 0,-65 53,-117 117,-117zm0 350c64,0 117,53 117,117 0,64 -53,117 -117,117l0 0 0 0c-64,0 -117,-53 -117,-117 0,-64 53,-117 117,-117zm-1147 -2726c65,0 117,52 117,117 0,64 -52,116 -117,116 65,0 117,53 117,117 0,65 -52,117 -117,117 65,0 117,52 117,117 0,64 -52,116 -117,116 -64,0 -117,-52 -117,-116 0,-65 53,-117 117,-117 -64,0 -117,-52 -117,-117 0,-64 53,-117 117,-117 -64,0 -117,-52 -117,-116 0,-65 53,-117 117,-117zm0 817c65,0 117,52 117,117 0,64 -52,116 -117,116 -64,0 -117,-52 -117,-116 0,-65 53,-117 117,-117zm0 467c65,0 117,52 117,117 0,64 -52,116 -117,116 -64,0 -117,-52 -117,-116 0,-65 53,-117 117,-117zm0 350c65,0 117,52 117,117 0,64 -52,116 -117,116l0 0 0 0c-64,0 -117,-52 -117,-116 0,-65 53,-117 117,-117zm0 233c65,0 117,53 117,117 0,65 -52,117 -117,117 -64,0 -117,-52 -117,-117 0,-64 53,-117 117,-117zm3386 891c38,0 71,18 92,45 4,-61 55,-109 117,-109 64,0 116,52 116,116 0,-64 53,-116 117,-116 65,0 117,52 117,116 0,-64 52,-116 117,-116 64,0 116,52 116,116 0,65 -52,117 -116,117 -65,0 -117,-52 -117,-117 0,65 -52,117 -117,117 -64,0 -117,-52 -117,-117 0,65 -52,117 -116,117 -38,0 -71,-18 -92,-45 -4,61 -55,109 -117,109 65,0 117,53 117,117 0,65 -52,117 -117,117 65,0 117,52 117,117 0,64 -52,116 -117,116 -64,0 -117,-52 -117,-116 0,-65 53,-117 117,-117 -64,0 -117,-52 -117,-117 0,-64 53,-117 117,-117 -64,0 -117,-52 -117,-116 0,-65 53,-117 117,-117zm0 817c65,0 117,52 117,117 0,64 -52,116 -117,116 -64,0 -117,-52 -117,-116 0,-65 53,-117 117,-117zm0 467c65,0 117,52 117,117 0,64 -52,116 -117,116 -64,0 -117,-52 -117,-116 0,-65 53,-117 117,-117zm0 350c65,0 117,52 117,117 0,64 -52,116 -117,116l0 0 0 0c-64,0 -117,-52 -117,-116 0,-65 53,-117 117,-117zm0 233c65,0 117,53 117,117 0,65 -52,117 -117,117 -64,0 -117,-52 -117,-117 0,-64 53,-117 117,-117zm-4560 -638c64,0 117,52 117,116 0,65 -53,117 -117,117 64,0 117,52 117,117 0,64 -53,117 -117,117 64,0 117,52 117,116 0,65 -53,117 -117,117 -64,0 -117,-52 -117,-117 0,-64 53,-116 117,-116 -64,0 -117,-53 -117,-117 0,-65 53,-117 117,-117 -64,0 -117,-52 -117,-117 0,-64 53,-116 117,-116zm0 817c64,0 117,52 117,116 0,65 -53,117 -117,117 -64,0 -117,-52 -117,-117 0,-64 53,-116 117,-116zm0 467c64,0 117,52 117,116 0,65 -53,117 -117,117 -64,0 -117,-52 -117,-117 0,-64 53,-116 117,-116zm0 350c64,0 117,52 117,116 0,65 -53,117 -117,117l0 0 0 0c-64,0 -117,-52 -117,-117 0,-64 53,-116 117,-116zm0 233c64,0 117,52 117,117 0,64 -53,117 -117,117 -64,0 -117,-53 -117,-117 0,-65 53,-117 117,-117zm-824 -2433c64,0 117,52 117,116 0,65 -53,117 -117,117 64,0 117,52 117,117 0,64 -53,117 -117,117 64,0 117,52 117,116 0,65 -53,117 -117,117 -64,0 -117,-52 -117,-117 0,-64 53,-116 117,-116 -64,0 -117,-53 -117,-117 0,-65 53,-117 117,-117 -64,0 -117,-52 -117,-117 0,-64 53,-116 117,-116zm0 817c64,0 116,52 117,116 0,-64 52,-116 116,-116 65,0 117,52 117,116 0,65 -52,117 -117,117 -64,0 -116,-52 -116,-116 -1,64 -53,116 -117,116 -64,0 -117,-52 -117,-117 0,65 -52,117 -116,117 -65,0 -117,-52 -117,-117 0,-64 52,-116 117,-116 64,0 116,52 116,116 0,-64 53,-116 117,-116zm0 467c64,0 117,52 117,116 0,65 -53,117 -117,117 -64,0 -117,-52 -117,-117 0,-64 53,-116 117,-116zm0 350c64,0 117,52 117,116 0,65 -53,117 -117,117l0 0 0 0c-64,0 -117,-52 -117,-117 0,-64 53,-116 117,-116zm4841 2097c0,-64 52,-117 116,-117 65,0 117,53 117,117 0,-64 52,-117 117,-117 64,0 116,53 116,117 0,-64 53,-117 117,-117 65,0 117,53 117,117 0,65 -52,117 -117,117 -64,0 -117,-52 -117,-117 0,65 -52,117 -116,117 -65,0 -117,-52 -117,-117 0,65 -52,117 -117,117 -64,0 -116,-52 -116,-117zm817 0c0,-64 52,-117 116,-117 65,0 117,53 117,117 0,65 -52,117 -117,117 -64,0 -116,-52 -116,-117zm466 0c0,-64 53,-117 117,-117 65,0 117,53 117,117 0,65 -52,117 -117,117 -64,0 -117,-52 -117,-117zm351 0c0,-64 52,-117 116,-117 65,0 117,53 117,117 0,65 -52,117 -117,117 -64,0 -116,-52 -116,-117zm-2082 233c0,-64 52,-116 117,-116 64,0 117,52 117,116 0,65 -53,117 -117,117 -65,0 -117,-52 -117,-117zm467 0c0,-64 52,-116 117,-116 64,0 116,52 116,116 0,-64 53,-116 117,-116 65,0 117,52 117,116 0,-64 52,-116 117,-116 64,0 116,52 116,116 0,65 -52,117 -116,117 -65,0 -117,-52 -117,-117 0,65 -52,117 -117,117 -64,0 -117,-52 -117,-117 0,65 -52,117 -116,117 -65,0 -117,-52 -117,-117zm817 0c0,-64 52,-116 117,-116 64,0 116,52 116,116 0,65 -52,117 -116,117 -65,0 -117,-52 -117,-117zm467 0c0,-64 52,-116 117,-116 64,0 116,52 116,116 0,65 -52,117 -116,117 -65,0 -117,-52 -117,-117zm350 0c0,-64 52,-116 117,-116 64,0 116,52 116,116 0,65 -52,117 -116,117 -65,0 -117,-52 -117,-117zm-201 -4575c0,-64 52,-116 117,-116 64,0 117,52 117,116 0,65 -53,117 -117,117 -65,0 -117,-52 -117,-117zm467 0c0,-64 52,-116 117,-116 64,0 116,52 116,116 0,65 -52,117 -116,117 -65,0 -117,-52 -117,-117zm350 0c0,-64 52,-116 117,-116 64,0 117,52 117,116 0,65 -53,117 -117,117 -65,0 -117,-52 -117,-117zm-2081 234c0,-65 52,-117 116,-117 65,0 117,52 117,117 0,64 -52,117 -117,117 -64,0 -116,-53 -116,-117zm467 0c0,-65 52,-117 116,-117 65,0 117,52 117,117 0,-65 52,-117 117,-117 64,0 116,52 116,117 0,-65 53,-117 117,-117 65,0 117,52 117,117 0,64 -52,117 -117,117 -64,0 -117,-53 -117,-117 0,64 -52,117 -116,117 -65,0 -117,-53 -117,-117 0,64 -52,117 -117,117 -64,0 -116,-53 -116,-117zm817 0c0,-65 52,-117 116,-117 65,0 117,52 117,117 0,64 -52,117 -117,117 -64,0 -116,-53 -116,-117zm466 0c0,-65 53,-117 117,-117 65,0 117,52 117,117 0,64 -52,117 -117,117 -64,0 -117,-53 -117,-117zm351 0c0,-65 52,-117 116,-117 65,0 117,52 117,117 0,64 -52,117 -117,117 -64,0 -116,-53 -116,-117zm-6323 -3237c0,-65 52,-117 116,-117 65,0 117,52 117,117 0,-65 52,-117 117,-117 64,0 117,52 117,117 0,-65 52,-117 116,-117 65,0 117,52 117,117 0,64 -52,116 -117,116 -64,0 -116,-52 -116,-116 0,64 -53,116 -117,116 -65,0 -117,-52 -117,-116 0,64 -52,116 -117,116 -64,0 -116,-52 -116,-116zm817 0c0,-65 52,-117 116,-117 65,0 117,52 117,117 0,64 -52,116 -117,116 -64,0 -116,-52 -116,-116zm467 0c0,-65 52,-117 116,-117 65,0 117,52 117,117 0,64 -52,116 -117,116 -64,0 -116,-52 -116,-116zm350 0c0,-65 52,-117 116,-117 65,0 117,52 117,117 0,64 -52,116 -117,116 -64,0 -116,-52 -116,-116zm-2082 233c0,-64 53,-117 117,-117 64,0 117,53 117,117 0,65 -53,117 -117,117 -64,0 -117,-52 -117,-117zm467 0c0,-64 52,-117 117,-117 64,0 117,53 117,117 0,-64 52,-117 116,-117 65,0 117,53 117,117 0,-64 52,-117 117,-117 64,0 116,53 116,117 0,65 -52,117 -116,117 -65,0 -117,-52 -117,-117 0,65 -52,117 -117,117 -64,0 -116,-52 -116,-117 0,65 -53,117 -117,117 -65,0 -117,-52 -117,-117zm817 0c0,-64 52,-117 117,-117 64,0 117,53 117,117 0,65 -53,117 -117,117 -65,0 -117,-52 -117,-117zm467 0c0,-64 52,-117 117,-117 64,0 116,53 116,117 0,65 -52,117 -116,117 -65,0 -117,-52 -117,-117zm350 0c0,-64 52,-117 117,-117 64,0 117,53 117,117 0,65 -53,117 -117,117 -65,0 -117,-52 -117,-117zm-3647 4081c0,-64 53,-117 117,-117 65,0 117,53 117,117 0,-64 52,-117 117,-117 64,0 116,53 116,117 0,-64 52,-117 117,-117 64,0 117,53 117,117 0,65 -53,117 -117,117 -65,0 -117,-52 -117,-117 0,65 -52,117 -116,117 -65,0 -117,-52 -117,-117 0,65 -52,117 -117,117 -64,0 -117,-52 -117,-117zm817 0c0,-64 53,-117 117,-117 65,0 117,53 117,117 0,65 -52,117 -117,117 -64,0 -117,-52 -117,-117zm467 0c0,-64 52,-117 117,-117 64,0 117,53 117,117 0,65 -53,117 -117,117 -65,0 -117,-52 -117,-117zm350 0c0,-64 53,-117 117,-117 65,0 117,53 117,117 0,65 -52,117 -117,117 -64,0 -117,-52 -117,-117zm-2081 233c0,-64 52,-116 117,-116 64,0 116,52 116,116 0,65 -52,117 -116,117 -65,0 -117,-52 -117,-117zm467 0c0,-64 52,-116 117,-116 64,0 116,52 116,116 0,-64 53,-116 117,-116 64,0 117,52 117,116 0,-64 52,-116 116,-116 65,0 117,52 117,116 0,65 -52,117 -117,117 -64,0 -116,-52 -116,-117 0,65 -53,117 -117,117 -64,0 -117,-52 -117,-117 0,65 -52,117 -116,117 -65,0 -117,-52 -117,-117zm1634 0c0,-64 52,-116 117,-116 64,0 116,52 116,116 0,65 -52,117 -116,117 -65,0 -117,-52 -117,-117zm1596 1815c0,-64 52,-117 117,-117 64,0 116,53 116,117 0,-64 52,-117 117,-117 64,0 117,53 117,117 0,-64 52,-117 116,-117 65,0 117,53 117,117 0,65 -52,117 -117,117 -64,0 -116,-52 -116,-117 0,65 -53,117 -117,117 -65,0 -117,-52 -117,-117 0,65 -52,117 -116,117 -65,0 -117,-52 -117,-117zm817 0c0,-64 52,-117 117,-117 64,0 116,53 116,117 0,65 -52,117 -116,117 -65,0 -117,-52 -117,-117zm467 0c0,-64 52,-117 116,-117 65,0 117,53 117,117 0,65 -52,117 -117,117 -64,0 -116,-52 -116,-117zm350 0c0,-64 52,-117 117,-117 64,0 116,53 116,117 0,65 -52,117 -116,117 -65,0 -117,-52 -117,-117zm-2082 233c0,-64 53,-116 117,-116 65,0 117,52 117,116 0,65 -52,117 -117,117 -64,0 -117,-52 -117,-117zm467 0c0,-64 53,-116 117,-116 64,0 117,52 117,116 0,-64 52,-116 116,-116 65,0 117,52 117,116 0,-64 52,-116 117,-116 64,0 117,52 117,116 0,65 -53,117 -117,117 -65,0 -117,-52 -117,-117 0,65 -52,117 -117,117 -64,0 -116,-52 -116,-117 0,65 -53,117 -117,117 -64,0 -117,-52 -117,-117zm817 0c0,-64 53,-116 117,-116 64,0 117,52 117,116 0,65 -53,117 -117,117 -64,0 -117,-52 -117,-117zm467 0c0,-64 52,-116 117,-116 64,0 117,52 117,116 0,65 -53,117 -117,117 -65,0 -117,-52 -117,-117zm350 0c0,-64 53,-116 117,-116 64,0 117,52 117,116 0,65 -53,117 -117,117 -64,0 -117,-52 -117,-117zm97 -1104c0,-64 52,-117 117,-117 64,0 116,53 116,117 0,-64 53,-117 117,-117 65,0 117,53 117,117 0,-64 52,-117 117,-117 64,0 116,53 116,117 0,65 -52,117 -116,117 -65,0 -117,-52 -117,-117 0,65 -52,117 -117,117 -64,0 -117,-52 -117,-117 0,65 -52,117 -116,117 -65,0 -117,-52 -117,-117zm817 0c0,-64 52,-117 117,-117 64,0 116,53 116,117 0,65 -52,117 -116,117 -65,0 -117,-52 -117,-117zm467 0c0,-64 52,-117 117,-117 64,0 116,53 116,117 0,65 -52,117 -116,117 -65,0 -117,-52 -117,-117zm350 0c0,-64 52,-117 117,-117 64,0 116,53 116,117 0,65 -52,117 -116,117 -65,0 -117,-52 -117,-117zm350 0c0,-64 52,-117 117,-117 64,0 117,53 117,117 0,65 -53,117 -117,117 -65,0 -117,-52 -117,-117zm215 -152c0,-64 52,-116 116,-116 65,0 117,52 117,116 0,65 -52,117 -117,117 -64,0 -116,-52 -116,-117zm-2646 385c0,-64 52,-116 116,-116 65,0 117,52 117,116 0,65 -52,117 -117,117 -64,0 -116,-52 -116,-117zm466 0c0,-64 53,-116 117,-116 65,0 117,52 117,116 0,-64 52,-116 117,-116 64,0 116,52 116,116 0,-64 53,-116 117,-116 64,0 117,52 117,116 0,65 -53,117 -117,117 -64,0 -117,-52 -117,-117 0,65 -52,117 -116,117 -65,0 -117,-52 -117,-117 0,65 -52,117 -117,117 -64,0 -117,-52 -117,-117zm817 0c0,-64 53,-116 117,-116 65,0 117,52 117,116 0,65 -52,117 -117,117 -64,0 -117,-52 -117,-117zm467 0c0,-64 53,-116 117,-116 64,0 117,52 117,116 0,65 -53,117 -117,117 -64,0 -117,-52 -117,-117zm350 0c0,-64 53,-116 117,-116 65,0 117,52 117,116l0 0 0 0c0,65 -52,117 -117,117 -64,0 -117,-52 -117,-117zm234 0c0,-64 52,-116 117,-116 64,0 116,52 116,116 0,65 -52,117 -116,117 -65,0 -117,-52 -117,-117zm-4127 -272c64,0 117,53 117,117 0,65 -53,117 -117,117 64,0 117,52 117,117 0,64 -53,116 -117,116 64,0 117,53 117,117 0,65 -53,117 -117,117 -65,0 -117,-52 -117,-117 0,-64 52,-117 117,-117 -65,0 -117,-52 -117,-116 0,-65 52,-117 117,-117 -65,0 -117,-52 -117,-117 0,-64 52,-117 117,-117zm0 817c64,0 117,53 117,117 0,65 -53,117 -117,117 -65,0 -117,-52 -117,-117 0,-64 52,-117 117,-117zm0 467c64,0 117,53 117,117 0,65 -53,117 -117,117 -65,0 -117,-52 -117,-117 0,-64 52,-117 117,-117zm0 350c64,0 117,53 117,117 0,65 -53,117 -117,117 -65,0 -117,-52 -117,-117 0,-64 52,-117 117,-117zm0 351c64,0 117,52 117,116 0,65 -53,117 -117,117l0 0 0 0c-65,0 -117,-52 -117,-117 0,-64 52,-116 117,-116zm0 233c64,0 117,52 117,117 0,64 -53,116 -117,116 -65,0 -117,-52 -117,-116 0,-65 52,-117 117,-117zm-234 -2665c65,0 117,52 117,117 0,64 -52,116 -117,116 -64,0 -116,-52 -116,-116 0,-65 52,-117 116,-117zm0 467c65,0 117,52 117,117 0,64 -52,116 -117,116 65,0 117,53 117,117 0,65 -52,117 -117,117 65,0 117,52 117,117 0,64 -52,116 -117,116 -64,0 -116,-52 -116,-116 0,-65 52,-117 116,-117 -64,0 -116,-52 -116,-117 0,-64 52,-117 116,-117 -64,0 -116,-52 -116,-116 0,-65 52,-117 116,-117zm0 817c65,0 117,52 117,117 0,64 -52,116 -117,116 -64,0 -116,-52 -116,-116 0,-65 52,-117 116,-117zm0 467c65,0 117,52 117,117 0,64 -52,116 -117,116 -64,0 -116,-52 -116,-116 0,-65 52,-117 116,-117zm0 350c65,0 117,52 117,117 0,64 -52,116 -117,116l0 0 0 0c-64,0 -116,-52 -116,-116 0,-65 52,-117 116,-117zm5204 -3026c64,0 116,52 116,116 0,65 -52,117 -116,117 64,0 116,52 116,117 0,64 -52,117 -116,117 64,0 116,52 116,116 0,65 -52,117 -116,117 -65,0 -117,-52 -117,-117 0,-64 52,-116 117,-116 -65,0 -117,-53 -117,-117 0,-65 52,-117 117,-117 -65,0 -117,-52 -117,-117 0,-64 52,-116 117,-116zm0 817c64,0 116,52 116,116 0,65 -52,117 -116,117 -65,0 -117,-52 -117,-117 0,-64 52,-116 117,-116zm0 467c64,0 116,52 116,116 0,65 -52,117 -116,117 -65,0 -117,-52 -117,-117 0,-64 52,-116 117,-116zm0 350c64,0 116,52 116,116 0,65 -52,117 -116,117 -65,0 -117,-52 -117,-117 0,-64 52,-116 117,-116zm0 350c64,0 116,52 116,117 0,64 -52,116 -116,116l0 0 0 0c-65,0 -117,-52 -117,-116 0,-65 52,-117 117,-117zm0 233c64,0 116,52 116,117 0,64 -52,117 -116,117 -65,0 -117,-53 -117,-117 0,-65 52,-117 117,-117zm-234 -2198c65,0 117,52 117,117 0,64 -52,117 -117,117 65,0 117,52 117,116 0,65 -52,117 -117,117 65,0 117,52 117,117 0,64 -52,116 -117,116 -64,0 -117,-52 -117,-116 0,-65 53,-117 117,-117 -64,0 -117,-52 -117,-117 0,-64 53,-116 117,-116 -64,0 -117,-53 -117,-117 0,-65 53,-117 117,-117zm0 817c65,0 117,52 117,117 0,64 -52,117 -117,117 -64,0 -117,-53 -117,-117 0,-65 53,-117 117,-117zm0 467c65,0 117,52 117,117 0,64 -52,116 -117,116 -64,0 -117,-52 -117,-116 0,-65 53,-117 117,-117zm0 350c65,0 117,52 117,117 0,64 -52,117 -117,117l0 0 0 0c-64,0 -117,-53 -117,-117 0,-65 53,-117 117,-117zm0 234c65,0 117,52 117,116 0,65 -52,117 -117,117 -64,0 -117,-52 -117,-117 0,-64 53,-116 117,-116zm-7710 -4007c64,0 116,52 116,117 0,64 -52,116 -116,116 64,0 116,53 116,117 0,65 -52,117 -116,117 64,0 116,52 116,117 0,64 -52,116 -116,116 -65,0 -117,-52 -117,-116 0,-65 52,-117 117,-117 -65,0 -117,-52 -117,-117 0,-64 52,-117 117,-117 -65,0 -117,-52 -117,-116 0,-65 52,-117 117,-117zm0 817c64,0 116,52 116,117 0,64 -52,116 -116,116 -65,0 -117,-52 -117,-116 0,-65 52,-117 117,-117zm0 467c64,0 116,52 116,117 0,64 -52,116 -116,116 -65,0 -117,-52 -117,-116 0,-65 52,-117 117,-117zm0 350c64,0 116,52 116,117 0,64 -52,116 -116,116 -65,0 -117,-52 -117,-116 0,-65 52,-117 117,-117zm0 350c64,0 116,52 116,117 0,64 -52,117 -116,117l0 0 0 0c-65,0 -117,-53 -117,-117 0,-65 52,-117 117,-117zm0 234c64,0 116,52 116,116 0,65 -52,117 -116,117 -65,0 -117,-52 -117,-117 0,-64 52,-116 117,-116zm-234 -2665c65,0 117,52 117,116 0,65 -52,117 -117,117 -64,0 -117,-52 -117,-117 0,-64 53,-116 117,-116zm0 466c65,0 117,53 117,117 0,65 -52,117 -117,117 65,0 117,52 117,117 0,64 -52,116 -117,116 65,0 117,53 117,117 0,64 -52,117 -117,117 -64,0 -117,-53 -117,-117 0,-64 53,-117 117,-117 -64,0 -117,-52 -117,-116 0,-65 53,-117 117,-117 -64,0 -117,-52 -117,-117 0,-64 53,-117 117,-117zm0 817c65,0 117,53 117,117 0,65 -52,117 -117,117 -64,0 -117,-52 -117,-117 0,-64 53,-117 117,-117zm0 467c65,0 117,53 117,117 0,64 -52,117 -117,117 -64,0 -117,-53 -117,-117 0,-64 53,-117 117,-117zm0 584c65,0 117,52 117,117 0,64 -52,116 -117,116 -64,0 -117,-52 -117,-116 0,-65 53,-117 117,-117z"/>
    <path class="fil3" d="M9235 1053l581 0c469,0 853,384 853,853l0 581c0,469 -384,853 -853,853l-581 0c-469,0 -853,-384 -853,-853l0 -581c0,-469 384,-853 853,-853zm0 650l581 0c111,0 203,92 203,203l0 581c0,111 -92,202 -203,202l-581 0c-111,0 -202,-91 -202,-202l0 -581c0,-111 91,-203 202,-203zm0 -464l581 0c367,0 667,300 667,667l0 581c0,366 -300,667 -667,667l-581 0c-367,0 -667,-301 -667,-667l0 -581c0,-367 300,-667 667,-667z"/>
    <path class="fil3" d="M1908 8422l581 0c469,0 853,384 853,853l0 581c0,469 -384,853 -853,853l-581 0c-469,0 -853,-384 -853,-853l0 -581c0,-469 384,-853 853,-853zm0 651l581 0c111,0 202,91 202,202l0 581c0,111 -91,203 -202,203l-581 0c-111,0 -203,-92 -203,-203l0 -581c0,-111 92,-202 203,-202zm0 -465l581 0c367,0 667,300 667,667l0 581c0,367 -300,667 -667,667l-581 0c-367,0 -667,-300 -667,-667l0 -581c0,-367 300,-667 667,-667z"/>
   </g>
   <g>
    <path class="fil4" d="M5881 3892c1283,0 2503,505 3411,1413l107 107 -916 915 -107 -106c-664,-664 -1556,-1034 -2495,-1034 -939,0 -1831,370 -2495,1034l-107 106 -916 -915 107 -107c908,-908 2128,-1413 3411,-1413zm0 3684c629,0 1140,510 1140,1139 0,630 -511,1140 -1140,1140 -629,0 -1140,-510 -1140,-1140 0,-629 511,-1139 1140,-1139zm0 -5669c1812,0 3533,713 4814,1994l107 107 -916 916 -107 -107c-1037,-1038 -2431,-1615 -3898,-1615 -1467,0 -2861,577 -3898,1615l-107 107 -916 -916 107 -107c1281,-1281 3002,-1994 4814,-1994zm0 3970c755,0 1473,297 2007,831l107 107 -916 916 -107 -107c-290,-290 -680,-452 -1091,-452 -411,0 -801,162 -1091,452l-107 107 -916 -916 107 -107c534,-534 1252,-831 2007,-831z"/>
   </g>
   <path class="fil5" d="M5881 4043c-1290,0 -2458,523 -3304,1369l702 702c666,-666 1586,-1078 2602,-1078 1016,0 1936,412 2602,1078l702 -702c-846,-846 -2014,-1369 -3304,-1369zm0 3684c546,0 988,443 988,988 0,546 -442,989 -988,989 -546,0 -988,-443 -988,-989 0,-545 442,-988 988,-988zm0 -5669c-1838,0 -3503,745 -4707,1950l702 702c1025,-1025 2441,-1659 4005,-1659 1564,0 2980,634 4005,1659l702 -702c-1204,-1205 -2869,-1950 -4707,-1950zm0 3970c-742,0 -1414,301 -1900,787l702 702c306,-307 730,-496 1198,-496 468,0 892,189 1198,496l702 -702c-486,-486 -1158,-787 -1900,-787z"/>
  </g>
 </g>
</svg>
