<?xml version="1.0" encoding="UTF-8"?>
<!DOCTYPE svg PUBLIC "-//W3C//DTD SVG 1.1//EN" "http://www.w3.org/Graphics/SVG/1.1/DTD/svg11.dtd">
<!-- Creator: CorelDRAW X7 -->
<svg xmlns="http://www.w3.org/2000/svg" xml:space="preserve" width="76.2641mm" height="76.2641mm" version="1.1" style="shape-rendering:geometricPrecision; text-rendering:geometricPrecision; image-rendering:optimizeQuality; fill-rule:evenodd; clip-rule:evenodd"
viewBox="0 0 3365 3365"
 xmlns:xlink="http://www.w3.org/1999/xlink">
 <defs>
  <style type="text/css">
   <![CDATA[
    .fil2 {fill:#FEFEFE}
    .fil0 {fill:#2B2A29}
    .fil1 {fill:#6BC7E4}
    .fil3 {fill:#00A0E3}
   ]]>
  </style>
 </defs>
 <g id="Layer_x0020_1">
  <metadata id="CorelCorpID_0Corel-Layer"/>
  <path class="fil0" d="M208 652l0 -444 444 0 0 -208 -652 0 0 652 208 0zm2949 0l208 0 0 -652 -652 0 0 208 444 0 0 444zm-444 2505l0 208 652 0 0 -652 -208 0 0 444 -444 0zm-2505 -444l-208 0 0 652 652 0 0 -208 -444 0 0 -444z"/>
  <g id="_313323664">
   <path class="fil1" d="M546 301l166 0c134,0 244,110 244,244l0 166c0,135 -110,245 -244,245l-166 0c-134,0 -244,-110 -244,-245l0 -166c0,-134 110,-244 244,-244zm0 186l166 0c32,0 58,26 58,58l0 166c0,32 -26,58 -58,58l-166 0c-32,0 -58,-26 -58,-58l0 -166c0,-32 26,-58 58,-58zm0 -133l166 0c105,0 191,86 191,191l0 166c0,105 -86,191 -191,191l-166 0c-105,0 -191,-86 -191,-191l0 -166c0,-105 86,-191 191,-191z"/>
   <path class="fil1" d="M444 1795l0 0 0 0c18,0 33,-14 33,-33 0,-18 -15,-33 -33,-33 -19,0 -34,15 -34,33 0,19 15,33 34,33zm527 -847c0,-19 15,-34 34,-34 18,0 33,15 33,34 0,18 -15,33 -33,33 -19,0 -34,-15 -34,-33zm134 0c0,-19 15,-34 33,-34 19,0 34,15 34,34 0,18 -15,33 -34,33 -18,0 -33,-15 -33,-33zm100 0c0,-19 15,-34 34,-34 18,0 33,15 33,34 0,18 -15,33 -33,33 -19,0 -34,-15 -34,-33zm-228 67c0,-19 15,-34 33,-34 19,0 34,15 34,34 0,18 -15,33 -34,33 -18,0 -33,-15 -33,-33zm134 0c0,-19 15,-34 33,-34 18,0 33,15 33,34 0,18 -15,33 -33,33 -18,0 -33,-15 -33,-33zm100 0c0,-19 15,-34 33,-34 19,0 34,15 34,34 0,18 -15,33 -34,33 -18,0 -33,-15 -33,-33zm738 248c0,-18 15,-33 34,-33 18,0 33,15 33,33 0,19 -15,34 -33,34 -19,0 -34,-15 -34,-34zm134 0c0,-18 15,-33 33,-33 19,0 34,15 34,33 0,19 -15,34 -34,34 -18,0 -33,-15 -33,-34zm100 0c0,-18 15,-33 33,-33 19,0 34,15 34,33 0,19 -15,34 -34,34 -18,0 -33,-15 -33,-34zm-228 67c0,-18 15,-33 33,-33 19,0 34,15 34,33 0,18 -15,33 -34,33 -18,0 -33,-15 -33,-33zm133 0c0,-18 15,-33 34,-33 18,0 33,15 33,33 0,18 -15,33 -33,33 -19,0 -34,-15 -34,-33zm101 0c0,-18 15,-33 33,-33 18,0 33,15 33,33 0,18 -15,33 -33,33 -18,0 -33,-15 -33,-33zm-1557 -268c18,0 33,15 33,33 0,19 -15,34 -33,34 18,0 33,15 33,33 0,18 -15,33 -33,33 18,0 33,15 33,34 0,18 -15,33 -33,33 -19,0 -34,-15 -34,-33 0,-19 15,-34 34,-34 -19,0 -34,-15 -34,-33 0,-18 15,-33 34,-33 -19,0 -34,-15 -34,-34 0,-18 15,-33 34,-33zm0 234c18,0 33,15 33,33 0,18 -15,33 -33,33 -19,0 -34,-15 -34,-33 0,-18 15,-33 34,-33zm0 133c18,0 33,15 33,34 0,18 -15,33 -33,33 -19,0 -34,-15 -34,-33 0,-19 15,-34 34,-34zm622 248c0,-19 15,-34 33,-34 19,0 34,15 34,34 0,18 -15,33 -34,33 -18,0 -33,-15 -33,-33zm6 67c0,-19 15,-34 33,-34 18,0 33,15 33,34 0,18 -15,33 -33,33 -18,0 -33,-15 -33,-33zm131 -121c19,0 34,15 34,33 0,19 -15,34 -34,34l0 0 0 0c-18,0 -33,-15 -33,-34 0,-18 15,-33 33,-33zm0 67c19,0 34,14 34,33 0,18 -15,33 -34,33 -18,0 -33,-15 -33,-33 0,-19 15,-33 33,-33zm1567 624c18,0 33,15 33,33 0,19 -15,34 -33,34 -19,0 -34,-15 -34,-34 0,-18 15,-33 34,-33zm-80 9c18,0 33,15 33,33 0,19 -15,34 -33,34 -19,0 -34,-15 -34,-34 0,-18 15,-33 34,-33zm152 -183c18,0 33,15 33,33 0,19 -15,34 -33,34 -19,0 -34,-15 -34,-34 0,-18 15,-33 34,-33zm0 100c18,0 33,15 33,34 0,18 -15,33 -33,33l0 0 0 0c-19,0 -34,-15 -34,-33 0,-19 15,-34 34,-34zm0 67c18,0 33,15 33,33 0,19 -15,34 -33,34 -19,0 -34,-15 -34,-34 0,-18 15,-33 34,-33zm-80 -425c18,0 33,15 33,33 0,19 -15,34 -33,34 -19,0 -34,-15 -34,-34 0,-18 15,-33 34,-33zm0 100c18,0 33,15 33,33 0,19 -15,34 -33,34 -19,0 -34,-15 -34,-34 0,-18 15,-33 34,-33zm0 100c18,0 33,15 33,34 0,18 -15,33 -33,33l0 0 0 0c-19,0 -34,-15 -34,-33 0,-19 15,-34 34,-34zm0 67c18,0 33,15 33,33 0,19 -15,34 -33,34 -19,0 -34,-15 -34,-34 0,-18 15,-33 34,-33zm-1270 673c0,-19 15,-34 34,-34 18,0 33,15 33,34 0,18 -15,33 -33,33 -19,0 -34,-15 -34,-33zm6 67c0,-19 15,-34 33,-34 19,0 33,15 33,34 0,18 -14,33 -33,33 -18,0 -33,-15 -33,-33zm3 -143c0,-19 15,-34 33,-34 19,0 34,15 34,34 0,-19 15,-34 33,-34 19,0 33,15 33,34 0,18 -14,33 -33,33 -18,0 -33,-15 -33,-33 0,18 -15,33 -34,33 -18,0 -33,-15 -33,-33zm-978 -663c0,-18 15,-33 34,-33 18,0 33,15 33,33 0,19 -15,34 -33,34 -19,0 -34,-15 -34,-34zm6 67c0,-19 15,-33 33,-33 19,0 33,14 33,33 0,18 -14,33 -33,33 -18,0 -33,-15 -33,-33zm399 395c0,-19 15,-34 33,-34 19,0 34,15 34,34 0,18 -15,33 -34,33 -18,0 -33,-15 -33,-33zm6 66c0,-18 15,-33 33,-33 18,0 33,15 33,33 0,19 -15,34 -33,34 -18,0 -33,-15 -33,-34zm443 47c0,-19 15,-34 34,-34 18,0 33,15 33,34 0,18 -15,33 -33,33 -19,0 -34,-15 -34,-33zm6 67c0,-19 15,-34 33,-34 19,0 34,15 34,34 0,18 -15,33 -34,33 -18,0 -33,-15 -33,-33zm639 -122c0,-18 15,-33 33,-33 19,0 33,15 33,33 0,19 -14,34 -33,34 -18,0 -33,-15 -33,-34zm5 67c0,-19 15,-33 34,-33 18,0 33,14 33,33 0,18 -15,33 -33,33 -19,0 -34,-15 -34,-33zm460 261c0,-18 14,-33 33,-33 18,0 33,15 33,33 0,19 -15,34 -33,34 -19,0 -33,-15 -33,-34zm5 67c0,-18 15,-33 33,-33 19,0 34,15 34,33 0,18 -15,33 -34,33 -18,0 -33,-15 -33,-33zm164 -145c0,-18 15,-33 34,-33 18,0 33,15 33,33 0,19 -15,34 -33,34 -19,0 -34,-15 -34,-34zm6 67c0,-19 15,-33 33,-33 19,0 33,14 33,33 0,18 -14,33 -33,33 -18,0 -33,-15 -33,-33zm-262 -1010c0,-18 15,-33 34,-33 18,0 33,15 33,33 0,18 -15,33 -33,33 -19,0 -34,-15 -34,-33zm-69 -78c0,-19 15,-34 34,-34 18,0 33,15 33,34 0,-19 15,-34 33,-34 19,0 34,15 34,34 0,18 -15,33 -34,33 -18,0 -33,-15 -33,-33 0,18 -15,33 -33,33 -19,0 -34,-15 -34,-33zm167 0c0,-15 10,-28 23,-32 -15,-3 -26,-17 -26,-33 0,-18 15,-33 34,-33 18,0 33,15 33,33 0,15 -10,28 -23,32 15,4 26,17 26,33 0,18 -15,33 -33,33 -19,0 -34,-15 -34,-33zm134 0c0,-19 15,-34 33,-34 19,0 33,15 33,34 0,18 -14,33 -33,33 -18,0 -33,-15 -33,-33zm100 0c0,-19 15,-34 33,-34 19,0 34,15 34,34 0,18 -15,33 -34,33 -18,0 -33,-15 -33,-33zm109 -35c18,0 33,15 33,34 0,18 -15,33 -33,33 -19,0 -34,-15 -34,-33 0,-19 15,-34 34,-34zm-749 9c0,-18 15,-33 33,-33 19,0 34,15 34,33 0,-18 15,-33 33,-33 19,0 34,15 34,33 0,19 -15,34 -34,34 -18,0 -33,-15 -33,-34 0,19 -15,34 -34,34 -18,0 -33,-15 -33,-34zm6 67c0,-18 15,-33 33,-33 18,0 33,15 33,33 0,-18 15,-33 34,-33 18,0 33,15 33,33 0,19 -15,33 -33,33 -19,0 -34,-14 -34,-33 0,19 -15,33 -33,33 -18,0 -33,-14 -33,-33zm-305 215c0,-19 15,-34 33,-34 19,0 34,15 34,34 0,-19 15,-34 33,-34 19,0 33,15 33,34 0,18 -14,33 -33,33 -18,0 -33,-15 -33,-33 0,18 -15,33 -34,33 -18,0 -33,-15 -33,-33zm5 66c0,-18 15,-33 34,-33 18,0 33,15 33,33 0,-18 15,-33 34,-33 18,0 33,15 33,33 0,19 -15,34 -33,34 -19,0 -34,-15 -34,-34 0,19 -15,34 -33,34 -19,0 -34,-15 -34,-34zm452 463c0,-18 15,-33 33,-33 19,0 34,15 34,33 0,-18 15,-33 33,-33 19,0 33,15 33,33 0,18 -14,33 -33,33 -18,0 -33,-15 -33,-33 0,18 -15,33 -34,33 -18,0 -33,-15 -33,-33zm5 67c0,-19 15,-34 34,-34 18,0 33,15 33,34 0,-19 15,-34 34,-34 18,0 33,15 33,34 0,18 -15,33 -33,33 -19,0 -34,-15 -34,-33 0,18 -15,33 -33,33 -19,0 -34,-15 -34,-33zm-236 -153c0,-18 15,-33 33,-33 19,0 34,15 34,33 0,-18 15,-33 33,-33 19,0 34,15 34,33 0,-18 15,-33 33,-33 18,0 33,15 33,33 0,19 -15,34 -33,34 -18,0 -33,-15 -33,-34 0,19 -15,34 -34,34 -18,0 -33,-15 -33,-34 0,19 -15,34 -34,34 -18,0 -33,-15 -33,-34zm234 0c0,-18 15,-33 33,-33 19,0 34,15 34,33 0,19 -15,34 -34,34 -18,0 -33,-15 -33,-34zm133 0c0,-18 15,-33 34,-33 18,0 33,15 33,33 0,19 -15,34 -33,34 -19,0 -34,-15 -34,-34zm100 0c0,-18 15,-33 34,-33 18,0 33,15 33,33 0,19 -15,34 -33,34 -19,0 -34,-15 -34,-34zm-1390 -661c18,0 33,15 33,34 0,18 -15,33 -33,33 -19,0 -34,-15 -34,-33 0,-19 15,-34 34,-34zm0 100c18,0 33,15 33,34 0,18 -15,33 -33,33 -19,0 -34,-15 -34,-33 0,-19 15,-34 34,-34zm-67 -94c19,0 33,15 33,33 0,19 -14,34 -33,34 -18,0 -33,-15 -33,-34 0,-18 15,-33 33,-33zm0 100c19,0 33,15 33,33 0,19 -14,34 -33,34 -18,0 -33,-15 -33,-34 0,-18 15,-33 33,-33zm-517 -455c18,0 33,15 33,33 0,18 -15,33 -33,33 -19,0 -33,-15 -33,-33 0,-18 14,-33 33,-33zm0 100c18,0 33,15 33,33 0,19 -15,34 -33,34 -19,0 -33,-15 -33,-34 0,-18 14,-33 33,-33zm-67 -95c19,0 34,15 34,34 0,18 -15,33 -34,33 -18,0 -33,-15 -33,-33 0,-19 15,-34 33,-34zm0 100c19,0 34,15 34,34 0,18 -15,33 -34,33 -18,0 -33,-15 -33,-33 0,-19 15,-34 33,-34zm204 -4c18,0 33,15 33,34 0,18 -15,33 -33,33 -19,0 -34,-15 -34,-33 0,-19 15,-34 34,-34zm0 100c18,0 33,15 33,34 0,18 -15,33 -33,33 -19,0 -34,-15 -34,-33 0,-19 15,-34 34,-34zm-67 -94c18,0 33,15 33,33 0,19 -15,33 -33,33 -19,0 -34,-14 -34,-33 0,-18 15,-33 34,-33zm0 100c18,0 33,15 33,33 0,19 -15,34 -33,34 -19,0 -34,-15 -34,-34 0,-18 15,-33 34,-33zm950 -1213c-19,0 -34,15 -34,33 0,18 15,33 34,33 18,0 33,-15 33,-33 0,-18 -15,-33 -33,-33zm-32 15c0,-19 -15,-34 -34,-34 -18,0 -33,15 -33,34 0,-19 -15,-34 -33,-34 -19,0 -34,15 -34,34 0,-19 -15,-34 -33,-34 -19,0 -34,15 -34,34 0,18 15,33 34,33 18,0 33,-15 33,-33 0,18 15,33 34,33 18,0 33,-15 33,-33 0,18 15,33 33,33 19,0 34,-15 34,-33zm-234 0c0,-19 -15,-34 -33,-34 -19,0 -34,15 -34,34 0,18 15,33 34,33 18,0 33,-15 33,-33zm-134 0c0,-19 -14,-34 -33,-34 -18,0 -33,15 -33,34 0,18 15,33 33,33 19,0 33,-15 33,-33zm-100 0c0,-19 -15,-34 -33,-34 -19,0 -33,15 -33,34 0,18 14,33 33,33 18,0 33,-15 33,-33zm817 -47c-18,0 -33,15 -33,34 0,18 15,33 33,33 -18,0 -33,15 -33,33 0,19 15,34 33,34 19,0 34,-15 34,-34 0,-18 -15,-33 -34,-33 19,0 34,-15 34,-33 0,-19 -15,-34 -34,-34zm341 -55c0,-19 -15,-34 -33,-34 -19,0 -34,15 -34,34 0,-19 -15,-34 -33,-34 -19,0 -34,15 -34,34 0,-19 -14,-34 -33,-34 -18,0 -33,15 -33,34 0,18 15,33 33,33 19,0 33,-15 33,-33 0,18 15,33 34,33 18,0 33,-15 33,-33 0,18 15,33 34,33 18,0 33,-15 33,-33zm-234 0c0,-19 -15,-34 -33,-34 -19,0 -33,15 -33,34 0,18 14,33 33,33 18,0 33,-15 33,-33zm-133 0c0,-19 -15,-34 -34,-34 -18,0 -33,15 -33,34 0,18 15,33 33,33 19,0 34,-15 34,-33zm-100 0c0,-19 -15,-34 -34,-34 -18,0 -33,15 -33,34 0,18 15,33 33,33 19,0 34,-15 34,-33zm461 67c0,-19 -14,-34 -33,-34 -18,0 -33,15 -33,34 0,-19 -15,-34 -34,-34 -18,0 -33,15 -33,34 0,-19 -15,-34 -33,-34 -19,0 -34,15 -34,34 0,18 15,33 34,33 18,0 33,-15 33,-33 0,18 15,33 33,33 19,0 34,-15 34,-33 0,18 15,33 33,33 19,0 33,-15 33,-33zm-233 0c0,-19 -15,-34 -34,-34 -18,0 -33,15 -33,34 0,18 15,33 33,33 19,0 34,-15 34,-33zm-134 0c0,-19 -15,-34 -33,-34 -19,0 -34,15 -34,34 0,18 15,33 34,33 18,0 33,-15 33,-33zm-100 0c0,-19 -15,-34 -33,-34 -19,0 -34,15 -34,34 0,18 15,33 34,33 18,0 33,-15 33,-33zm-1060 1768c18,0 33,15 33,33 0,-18 15,-33 33,-33 19,0 34,15 34,33 0,19 -15,34 -34,34 -18,0 -33,-15 -33,-33 0,18 -15,33 -33,33l0 0 0 0c-19,0 -34,-15 -34,-34 0,-18 15,-33 34,-33zm0 67c18,0 33,15 33,33 0,19 -15,34 -33,34 -19,0 -34,-15 -34,-34 0,-18 15,-33 34,-33zm-266 -258c19,0 33,15 33,33 0,19 -14,34 -33,34l0 0 0 0c-18,0 -33,-15 -33,-34 0,-18 15,-33 33,-33zm0 67c19,0 33,15 33,33 0,19 -14,33 -33,33 -18,0 -33,-14 -33,-33 0,-18 15,-33 33,-33zm545 738c0,-19 15,-34 33,-34 19,0 34,15 34,34 0,18 -15,33 -34,33 -18,0 -33,-15 -33,-33zm100 0c0,-19 15,-34 33,-34 3,0 6,0 8,1 -2,-5 -4,-10 -4,-16 0,-18 15,-33 34,-33 18,0 33,15 33,33 0,19 -15,33 -33,33 -3,0 -6,0 -8,-1 2,5 4,11 4,17 0,18 -15,33 -34,33 -18,0 -33,-15 -33,-33zm-95 66c0,-18 15,-33 34,-33 18,0 33,15 33,33 0,19 -15,34 -33,34 -19,0 -34,-15 -34,-34zm101 0c0,-18 15,-33 33,-33 18,0 33,15 33,33 0,19 -15,34 -33,34 -18,0 -33,-15 -33,-34zm605 -207c0,-18 15,-33 33,-33 19,0 34,15 34,33 0,18 -15,33 -34,33 -18,0 -33,-15 -33,-33zm100 0c0,-18 15,-33 33,-33 19,0 34,15 34,33 0,18 -15,33 -34,33 -18,0 -33,-15 -33,-33zm-95 67c0,-19 15,-34 34,-34 18,0 33,15 33,34 0,18 -15,33 -33,33 -19,0 -34,-15 -34,-33zm101 0c0,-19 14,-34 33,-34 18,0 33,15 33,34 0,18 -15,33 -33,33 -19,0 -33,-15 -33,-33zm520 -1711c18,0 33,15 33,34 0,18 -15,33 -33,33 18,0 33,15 33,33 0,19 -15,34 -33,34 -19,0 -34,-15 -34,-34 0,-18 15,-33 34,-33 -19,0 -34,-15 -34,-33 0,-19 15,-34 34,-34zm0 167c18,0 33,15 33,34 0,18 -15,33 -33,33 -19,0 -34,-15 -34,-33 0,-19 15,-34 34,-34zm32 -152c0,-18 14,-33 33,-33 18,0 33,15 33,33 0,-18 15,-33 34,-33 18,0 33,15 33,33 0,-18 15,-33 33,-33 19,0 34,15 34,33 0,19 -15,34 -34,34 -18,0 -33,-15 -33,-34 0,19 -15,34 -33,34 -19,0 -34,-15 -34,-34 0,19 -15,34 -33,34 -19,0 -33,-15 -33,-34zm233 0c0,-18 15,-33 34,-33 18,0 33,15 33,33 0,19 -15,34 -33,34 -19,0 -34,-15 -34,-34zm134 0c0,-18 15,-33 33,-33 19,0 34,15 34,33 0,19 -15,34 -34,34 -18,0 -33,-15 -33,-34zm100 0c0,-18 15,-33 33,-33 19,0 34,15 34,33 0,19 -15,34 -34,34 -18,0 -33,-15 -33,-34zm-168 241c19,0 33,15 33,34 0,18 -14,33 -33,33 -18,0 -33,-15 -33,-33 0,-19 15,-34 33,-34zm-67 -128c19,0 34,15 34,34 0,18 -15,33 -34,33 -18,0 -33,-15 -33,-33 0,-19 15,-34 33,-34zm-924 -438c18,0 33,15 33,33 0,18 -15,33 -33,33 18,0 33,15 33,34 0,18 -15,33 -33,33 -19,0 -34,-15 -34,-33 0,-19 15,-34 34,-34 -19,0 -34,-15 -34,-33 0,-18 15,-33 34,-33zm0 167c18,0 33,15 33,33 0,18 -15,33 -33,33 -19,0 -34,-15 -34,-33 0,-18 15,-33 34,-33zm32 -152c0,-19 15,-34 33,-34 18,0 33,15 33,34 0,-19 15,-34 34,-34 18,0 33,15 33,34 0,-19 15,-34 34,-34 18,0 33,15 33,34 0,18 -15,33 -33,33 -19,0 -34,-15 -34,-33 0,18 -15,33 -33,33 -19,0 -34,-15 -34,-33 0,18 -15,33 -33,33 -18,0 -33,-15 -33,-33zm233 0c0,-19 15,-34 34,-34 18,0 33,15 33,34 0,18 -15,33 -33,33 -19,0 -34,-15 -34,-33zm134 0c0,-19 15,-34 33,-34 19,0 34,15 34,34 0,18 -15,33 -34,33 -18,0 -33,-15 -33,-33zm100 0c0,-19 15,-34 33,-34 19,0 34,15 34,34 0,18 -15,33 -34,33 -18,0 -33,-15 -33,-33zm-168 241c19,0 33,15 33,33 0,19 -14,34 -33,34 -18,0 -33,-15 -33,-34 0,-18 15,-33 33,-33zm-67 -128c19,0 34,15 34,33 0,19 -15,34 -34,34 -18,0 -33,-15 -33,-34 0,-18 15,-33 33,-33zm-516 760c18,0 33,15 33,34 0,18 -15,33 -33,33 18,0 33,15 33,34 0,18 -15,33 -33,33 -19,0 -34,-15 -34,-33 0,-19 15,-34 34,-34 -19,0 -34,-15 -34,-33 0,-19 15,-34 34,-34zm0 167c18,0 33,15 33,34 0,18 -15,33 -33,33 -19,0 -34,-15 -34,-33 0,-19 15,-34 34,-34zm32 -152c0,-18 15,-33 33,-33 18,0 33,15 33,33 0,-18 15,-33 34,-33 18,0 33,15 33,33 0,-18 15,-33 34,-33 18,0 33,15 33,33 0,19 -15,34 -33,34 -19,0 -34,-15 -34,-34 0,19 -15,34 -33,34 -19,0 -34,-15 -34,-34 0,19 -15,34 -33,34 -18,0 -33,-15 -33,-34zm233 0c0,-10 5,-18 11,-24 -4,2 -9,3 -14,3 -18,0 -33,-15 -33,-34 0,-18 15,-33 33,-33 19,0 34,15 34,33 0,10 -5,19 -11,25 4,-2 9,-3 14,-3 18,0 33,15 33,33 0,19 -15,34 -33,34 -19,0 -34,-15 -34,-34zm134 0c0,-18 15,-33 33,-33 19,0 34,15 34,33 0,19 -15,34 -34,34 -18,0 -33,-15 -33,-34zm100 0c0,-18 15,-33 34,-33 18,0 33,15 33,33 0,19 -15,34 -33,34 -19,0 -34,-15 -34,-34zm-168 241c19,0 34,15 34,34 0,18 -15,33 -34,33 -18,0 -33,-15 -33,-33 0,-19 15,-34 33,-34zm-67 -128c19,0 34,15 34,34 0,18 -15,33 -34,33 -18,0 -33,-15 -33,-33 0,-19 15,-34 33,-34zm-950 -465c18,0 33,15 33,33 0,19 -15,33 -33,33 18,0 33,15 33,34 0,18 -15,33 -33,33 -18,0 -33,-15 -33,-33 0,-19 15,-34 33,-34 -18,0 -33,-14 -33,-33 0,-18 15,-33 33,-33zm0 167c18,0 33,15 33,33 0,18 -15,33 -33,33 -18,0 -33,-15 -33,-33 0,-18 15,-33 33,-33zm32 -152c0,-19 15,-34 33,-34 19,0 34,15 34,34 0,-19 15,-34 33,-34 18,0 33,15 33,34 0,-19 15,-34 34,-34 18,0 33,15 33,34 0,18 -15,33 -33,33 -19,0 -34,-15 -34,-33 0,18 -15,33 -33,33 -18,0 -33,-15 -33,-33 0,18 -15,33 -34,33 -18,0 -33,-15 -33,-33zm234 0c0,-19 14,-34 33,-34 18,0 33,15 33,34 0,18 -15,33 -33,33 -19,0 -33,-15 -33,-33zm133 0c0,-19 15,-34 34,-34 18,0 33,15 33,34 0,18 -15,33 -33,33 -19,0 -34,-15 -34,-33zm100 0c0,-19 15,-34 34,-34 18,0 33,15 33,34 0,18 -15,33 -33,33 -19,0 -34,-15 -34,-33zm-168 241c19,0 34,15 34,33 0,19 -15,34 -34,34 -18,0 -33,-15 -33,-34 0,-18 15,-33 33,-33zm-66 -128c18,0 33,15 33,33 0,19 -15,34 -33,34 -19,0 -34,-15 -34,-34 0,-18 15,-33 34,-33zm965 906c18,0 33,15 33,34 0,18 -15,33 -33,33 18,0 33,15 33,33 0,19 -15,34 -33,34 18,0 33,15 33,33 0,19 -15,34 -33,34 -19,0 -34,-15 -34,-34 0,-18 15,-33 34,-33 -19,0 -34,-15 -34,-34 0,-18 15,-33 34,-33 -19,0 -34,-15 -34,-33 0,-19 15,-34 34,-34zm0 234c18,0 33,15 33,33 0,19 -15,34 -33,34 -19,0 -34,-15 -34,-34 0,-18 15,-33 34,-33zm0 134c18,0 33,15 33,33 0,18 -15,33 -33,33 -19,0 -34,-15 -34,-33 0,-18 15,-33 34,-33zm0 100c18,0 33,15 33,33 0,19 -15,34 -33,34l0 0 0 0c-19,0 -34,-15 -34,-34 0,-18 15,-33 34,-33zm0 67c18,0 33,14 33,33 0,18 -15,33 -33,33 -19,0 -34,-15 -34,-33 0,-19 15,-33 34,-33zm62 -1316c18,0 33,15 33,33 0,19 -15,34 -33,34 18,0 33,15 33,33 0,19 -15,34 -33,34 18,0 33,15 33,33 0,18 -15,33 -33,33 -18,0 -33,-15 -33,-33 0,-18 15,-33 33,-33 -18,0 -33,-15 -33,-34 0,-18 15,-33 33,-33 -18,0 -33,-15 -33,-34 0,-18 15,-33 33,-33zm0 234c18,0 33,15 33,33 0,19 -15,34 -33,34 -18,0 -33,-15 -33,-34 0,-18 15,-33 33,-33zm0 133c18,0 33,15 33,34 0,18 -15,33 -33,33 -18,0 -33,-15 -33,-33 0,-19 15,-34 33,-34zm0 101c18,0 33,14 33,33 0,18 -15,33 -33,33l0 0 0 0c-18,0 -33,-15 -33,-33 0,-19 15,-33 33,-33zm0 66c18,0 33,15 33,34 0,18 -15,33 -33,33 -18,0 -33,-15 -33,-33 0,-19 15,-34 33,-34zm234 -1214c19,0 34,15 34,34 0,18 -15,33 -34,33 19,0 34,15 34,34 0,18 -15,33 -34,33 19,0 34,15 34,33 0,19 -15,34 -34,34 -18,0 -33,-15 -33,-34 0,-18 15,-33 33,-33 -18,0 -33,-15 -33,-33 0,-19 15,-34 33,-34 -18,0 -33,-15 -33,-33 0,-19 15,-34 33,-34zm0 234c19,0 34,15 34,34 0,18 -15,33 -34,33 -18,0 -33,-15 -33,-33 0,-19 15,-34 33,-34zm0 134c19,0 34,15 34,33 0,19 -15,33 -34,33 -18,0 -33,-14 -33,-33 0,-18 15,-33 33,-33zm0 100c19,0 34,15 34,33 0,19 -15,34 -34,34l0 0 0 0c-18,0 -33,-15 -33,-34 0,-18 15,-33 33,-33zm0 67c19,0 34,15 34,33 0,18 -15,33 -34,33 -18,0 -33,-15 -33,-33 0,-18 15,-33 33,-33zm-578 -378c19,0 34,15 34,33 0,18 -15,33 -34,33 19,0 34,15 34,34 0,18 -15,33 -34,33 19,0 34,15 34,34 0,18 -15,33 -34,33 -18,0 -33,-15 -33,-33 0,-19 15,-34 33,-34 -18,0 -33,-15 -33,-33 0,-19 15,-34 33,-34 -18,0 -33,-15 -33,-33 0,-18 15,-33 33,-33zm0 233c19,0 34,15 34,34 0,18 -15,33 -34,33 -18,0 -33,-15 -33,-33 0,-19 15,-34 33,-34zm0 134c19,0 34,15 34,33 0,19 -15,34 -34,34 -18,0 -33,-15 -33,-34 0,-18 15,-33 33,-33zm0 100c19,0 34,15 34,33 0,19 -15,34 -34,34l0 0 0 0c-18,0 -33,-15 -33,-34 0,-18 15,-33 33,-33zm-328 -780c19,0 34,15 34,34 0,18 -15,33 -34,33 19,0 34,15 34,33 0,19 -15,34 -34,34 19,0 34,15 34,33 0,19 -15,33 -34,33 -18,0 -33,-14 -33,-33 0,-18 15,-33 33,-33 -18,0 -33,-15 -33,-34 0,-18 15,-33 33,-33 -18,0 -33,-15 -33,-33 0,-19 15,-34 33,-34zm0 234c19,0 34,15 34,33 0,19 -15,34 -34,34 -18,0 -33,-15 -33,-34 0,-18 15,-33 33,-33zm0 133c19,0 34,15 34,34 0,18 -15,33 -34,33 -18,0 -33,-15 -33,-33 0,-19 15,-34 33,-34zm0 101c19,0 34,15 34,33 0,18 -15,33 -34,33l0 0 0 0c-18,0 -33,-15 -33,-33 0,-18 15,-33 33,-33zm0 66c19,0 34,15 34,34 0,18 -15,33 -34,33 -18,0 -33,-15 -33,-33 0,-19 15,-34 33,-34zm969 255c11,0 20,5 26,13 1,-17 16,-31 34,-31 18,0 33,15 33,33 0,-18 15,-33 33,-33 19,0 34,15 34,33 0,-18 15,-33 33,-33 19,0 34,15 34,33 0,19 -15,34 -34,34 -18,0 -33,-15 -33,-34 0,19 -15,34 -34,34 -18,0 -33,-15 -33,-34 0,19 -15,34 -33,34 -11,0 -21,-5 -27,-13 -1,17 -15,31 -33,31 18,0 33,15 33,33 0,19 -15,34 -33,34 18,0 33,15 33,33 0,19 -15,34 -33,34 -19,0 -34,-15 -34,-34 0,-18 15,-33 34,-33 -19,0 -34,-15 -34,-34 0,-18 15,-33 34,-33 -19,0 -34,-15 -34,-33 0,-19 15,-34 34,-34zm0 234c18,0 33,15 33,33 0,19 -15,34 -33,34 -19,0 -34,-15 -34,-34 0,-18 15,-33 34,-33zm0 133c18,0 33,15 33,34 0,18 -15,33 -33,33 -19,0 -34,-15 -34,-33 0,-19 15,-34 34,-34zm0 101c18,0 33,15 33,33 0,18 -15,33 -33,33l0 0 0 0c-19,0 -34,-15 -34,-33 0,-18 15,-33 34,-33zm0 66c18,0 33,15 33,34 0,18 -15,33 -33,33 -19,0 -34,-15 -34,-33 0,-19 15,-34 34,-34zm-1305 -182c19,0 34,15 34,33 0,19 -15,33 -34,33 19,0 34,15 34,34 0,18 -15,33 -34,33 19,0 34,15 34,34 0,18 -15,33 -34,33 -18,0 -33,-15 -33,-33 0,-19 15,-34 33,-34 -18,0 -33,-15 -33,-33 0,-19 15,-34 33,-34 -18,0 -33,-14 -33,-33 0,-18 15,-33 33,-33zm0 233c19,0 34,15 34,34 0,18 -15,33 -34,33 -18,0 -33,-15 -33,-33 0,-19 15,-34 33,-34zm0 134c19,0 34,15 34,33 0,19 -15,34 -34,34 -18,0 -33,-15 -33,-34 0,-18 15,-33 33,-33zm0 100c19,0 34,15 34,34 0,18 -15,33 -34,33l0 0 0 0c-18,0 -33,-15 -33,-33 0,-19 15,-34 33,-34zm0 67c19,0 34,15 34,33 0,19 -15,34 -34,34 -18,0 -33,-15 -33,-34 0,-18 15,-33 33,-33zm-236 -696c19,0 34,15 34,33 0,19 -15,34 -34,34 19,0 34,15 34,33 0,18 -15,33 -34,33 19,0 34,15 34,34 0,18 -15,33 -34,33 -18,0 -33,-15 -33,-33 0,-19 15,-34 33,-34 -18,0 -33,-15 -33,-33 0,-18 15,-33 33,-33 -18,0 -33,-15 -33,-34 0,-18 15,-33 33,-33zm0 234c19,0 34,14 34,33 0,-19 15,-33 33,-33 19,0 34,14 34,33 0,18 -15,33 -34,33 -18,0 -33,-15 -33,-33 0,18 -15,33 -34,33 -18,0 -33,-15 -33,-33 0,18 -15,33 -33,33 -19,0 -34,-15 -34,-33 0,-19 15,-33 34,-33 18,0 33,14 33,33 0,-19 15,-33 33,-33zm0 133c19,0 34,15 34,33 0,19 -15,34 -34,34 -18,0 -33,-15 -33,-34 0,-18 15,-33 33,-33zm0 100c19,0 34,15 34,34 0,18 -15,33 -34,33l0 0 0 0c-18,0 -33,-15 -33,-33 0,-19 15,-34 33,-34zm1385 600c0,-18 15,-33 34,-33 18,0 33,15 33,33 0,-18 15,-33 34,-33 18,0 33,15 33,33 0,-18 15,-33 33,-33 19,0 34,15 34,33 0,19 -15,34 -34,34 -18,0 -33,-15 -33,-34 0,19 -15,34 -33,34 -19,0 -34,-15 -34,-34 0,19 -15,34 -33,34 -19,0 -34,-15 -34,-34zm234 0c0,-18 15,-33 33,-33 19,0 34,15 34,33 0,19 -15,34 -34,34 -18,0 -33,-15 -33,-34zm134 0c0,-18 15,-33 33,-33 18,0 33,15 33,33 0,19 -15,34 -33,34 -18,0 -33,-15 -33,-34zm100 0c0,-18 15,-33 33,-33 19,0 34,15 34,33 0,19 -15,34 -34,34 -18,0 -33,-15 -33,-34zm-596 67c0,-18 15,-33 34,-33 18,0 33,15 33,33 0,19 -15,33 -33,33 -19,0 -34,-14 -34,-33zm134 0c0,-18 15,-33 33,-33 19,0 34,15 34,33 0,-18 15,-33 33,-33 19,0 33,15 33,33 0,-18 15,-33 34,-33 18,0 33,15 33,33 0,19 -15,33 -33,33 -19,0 -34,-14 -34,-33 0,19 -14,33 -33,33 -18,0 -33,-14 -33,-33 0,19 -15,33 -34,33 -18,0 -33,-14 -33,-33zm234 0c0,-18 15,-33 33,-33 18,0 33,15 33,33 0,19 -15,33 -33,33 -18,0 -33,-14 -33,-33zm133 0c0,-18 15,-33 34,-33 18,0 33,15 33,33 0,19 -15,33 -33,33 -19,0 -34,-14 -34,-33zm100 0c0,-18 15,-33 34,-33 18,0 33,15 33,33 0,19 -15,33 -33,33 -19,0 -34,-14 -34,-33zm-57 -1309c0,-18 15,-33 33,-33 19,0 34,15 34,33 0,19 -15,34 -34,34 -18,0 -33,-15 -33,-34zm133 0c0,-18 15,-33 34,-33 18,0 33,15 33,33 0,19 -15,34 -33,34 -19,0 -34,-15 -34,-34zm101 0c0,-18 15,-33 33,-33 18,0 33,15 33,33 0,19 -15,34 -33,34 -18,0 -33,-15 -33,-34zm-596 67c0,-18 15,-33 34,-33 18,0 33,15 33,33 0,18 -15,33 -33,33 -19,0 -34,-15 -34,-33zm134 0c0,-18 15,-33 33,-33 19,0 34,15 34,33 0,-18 14,-33 33,-33 18,0 33,15 33,33 0,-18 15,-33 34,-33 18,0 33,15 33,33 0,18 -15,33 -33,33 -19,0 -34,-15 -34,-33 0,18 -15,33 -33,33 -19,0 -33,-15 -33,-33 0,18 -15,33 -34,33 -18,0 -33,-15 -33,-33zm233 0c0,-18 15,-33 34,-33 18,0 33,15 33,33 0,18 -15,33 -33,33 -19,0 -34,-15 -34,-33zm134 0c0,-18 15,-33 33,-33 19,0 34,15 34,33 0,18 -15,33 -34,33 -18,0 -33,-15 -33,-33zm100 0c0,-18 15,-33 34,-33 18,0 33,15 33,33 0,18 -15,33 -33,33 -19,0 -34,-15 -34,-33zm-1809 -926c0,-19 15,-34 34,-34 18,0 33,15 33,34 0,-19 15,-34 33,-34 19,0 34,15 34,34 0,-19 15,-34 33,-34 19,0 34,15 34,34 0,18 -15,33 -34,33 -18,0 -33,-15 -33,-33 0,18 -15,33 -34,33 -18,0 -33,-15 -33,-33 0,18 -15,33 -33,33 -19,0 -34,-15 -34,-33zm234 0c0,-19 15,-34 33,-34 19,0 34,15 34,34 0,18 -15,33 -34,33 -18,0 -33,-15 -33,-33zm134 0c0,-19 15,-34 33,-34 18,0 33,15 33,34 0,18 -15,33 -33,33 -18,0 -33,-15 -33,-33zm100 0c0,-19 15,-34 33,-34 19,0 34,15 34,34 0,18 -15,33 -34,33 -18,0 -33,-15 -33,-33zm-596 67c0,-19 15,-34 34,-34 18,0 33,15 33,34 0,18 -15,33 -33,33 -19,0 -34,-15 -34,-33zm134 0c0,-19 15,-34 33,-34 19,0 34,15 34,34 0,-19 15,-34 33,-34 18,0 33,15 33,34 0,-19 15,-34 34,-34 18,0 33,15 33,34 0,18 -15,33 -33,33 -19,0 -34,-15 -34,-33 0,18 -15,33 -33,33 -18,0 -33,-15 -33,-33 0,18 -15,33 -34,33 -18,0 -33,-15 -33,-33zm234 0c0,-19 15,-34 33,-34 18,0 33,15 33,34 0,18 -15,33 -33,33 -18,0 -33,-15 -33,-33zm133 0c0,-19 15,-34 34,-34 18,0 33,15 33,34 0,18 -15,33 -33,33 -19,0 -34,-15 -34,-33zm100 0c0,-19 15,-34 34,-34 18,0 33,15 33,34 0,18 -15,33 -33,33 -19,0 -34,-15 -34,-33zm-1043 1167c0,-18 15,-33 33,-33 19,0 34,15 34,33 0,-18 15,-33 33,-33 19,0 34,15 34,33 0,-18 15,-33 33,-33 18,0 33,15 33,33 0,19 -15,34 -33,34 -18,0 -33,-15 -33,-34 0,19 -15,34 -34,34 -18,0 -33,-15 -33,-34 0,19 -15,34 -34,34 -18,0 -33,-15 -33,-34zm234 0c0,-18 15,-33 33,-33 19,0 34,15 34,33 0,19 -15,34 -34,34 -18,0 -33,-15 -33,-34zm133 0c0,-18 15,-33 34,-33 18,0 33,15 33,33 0,19 -15,34 -33,34 -19,0 -34,-15 -34,-34zm100 0c0,-18 15,-33 34,-33 18,0 33,15 33,33 0,19 -15,34 -33,34 -19,0 -34,-15 -34,-34zm-595 67c0,-19 15,-33 33,-33 19,0 34,14 34,33 0,18 -15,33 -34,33 -18,0 -33,-15 -33,-33zm134 0c0,-19 15,-33 33,-33 18,0 33,14 33,33 0,-19 15,-33 34,-33 18,0 33,14 33,33 0,-19 15,-33 34,-33 18,0 33,14 33,33 0,18 -15,33 -33,33 -19,0 -34,-15 -34,-33 0,18 -15,33 -33,33 -19,0 -34,-15 -34,-33 0,18 -15,33 -33,33 -18,0 -33,-15 -33,-33zm467 0c0,-19 15,-33 33,-33 19,0 34,14 34,33 0,18 -15,33 -34,33 -18,0 -33,-15 -33,-33zm457 519c0,-18 15,-33 33,-33 18,0 33,15 33,33 0,-18 15,-33 34,-33 18,0 33,15 33,33 0,-18 15,-33 34,-33 18,0 33,15 33,33 0,19 -15,33 -33,33 -19,0 -34,-14 -34,-33 0,19 -15,33 -33,33 -19,0 -34,-14 -34,-33 0,19 -15,33 -33,33 -18,0 -33,-14 -33,-33zm233 0c0,-18 15,-33 34,-33 18,0 33,15 33,33 0,19 -15,33 -33,33 -19,0 -34,-14 -34,-33zm134 0c0,-18 15,-33 33,-33 19,0 34,15 34,33 0,19 -15,33 -34,33 -18,0 -33,-14 -33,-33zm100 0c0,-18 15,-33 34,-33 18,0 33,15 33,33 0,19 -15,33 -33,33 -19,0 -34,-14 -34,-33zm-595 67c0,-19 15,-34 33,-34 18,0 33,15 33,34 0,18 -15,33 -33,33 -18,0 -33,-15 -33,-33zm133 0c0,-19 15,-34 34,-34 18,0 33,15 33,34 0,-19 15,-34 33,-34 19,0 34,15 34,34 0,-19 15,-34 33,-34 19,0 34,15 34,34 0,18 -15,33 -34,33 -18,0 -33,-15 -33,-33 0,18 -15,33 -34,33 -18,0 -33,-15 -33,-33 0,18 -15,33 -33,33 -19,0 -34,-15 -34,-33zm234 0c0,-19 15,-34 33,-34 19,0 34,15 34,34 0,18 -15,33 -34,33 -18,0 -33,-15 -33,-33zm134 0c0,-19 14,-34 33,-34 18,0 33,15 33,34 0,18 -15,33 -33,33 -19,0 -33,-15 -33,-33zm100 0c0,-19 15,-34 33,-34 19,0 33,15 33,34 0,18 -14,33 -33,33 -18,0 -33,-15 -33,-33zm27 -316c0,-19 15,-34 34,-34 18,0 33,15 33,34 0,-19 15,-34 34,-34 18,0 33,15 33,34 0,-19 15,-34 33,-34 19,0 34,15 34,34 0,18 -15,33 -34,33 -18,0 -33,-15 -33,-33 0,18 -15,33 -33,33 -19,0 -34,-15 -34,-33 0,18 -15,33 -33,33 -19,0 -34,-15 -34,-33zm234 0c0,-19 15,-34 33,-34 19,0 34,15 34,34 0,18 -15,33 -34,33 -18,0 -33,-15 -33,-33zm134 0c0,-19 15,-34 33,-34 19,0 33,15 33,34 0,18 -14,33 -33,33 -18,0 -33,-15 -33,-33zm100 0c0,-19 15,-34 33,-34 19,0 34,15 34,34 0,18 -15,33 -34,33 -18,0 -33,-15 -33,-33zm100 0c0,-19 15,-34 33,-34 19,0 34,15 34,34 0,18 -15,33 -34,33 -18,0 -33,-15 -33,-33zm61 -44c0,-18 15,-33 34,-33 18,0 33,15 33,33 0,19 -15,34 -33,34 -19,0 -34,-15 -34,-34zm-757 111c0,-19 15,-34 34,-34 18,0 33,15 33,34 0,18 -15,33 -33,33 -19,0 -34,-15 -34,-33zm134 0c0,-19 15,-34 33,-34 19,0 34,15 34,34 0,-19 15,-34 33,-34 19,0 34,15 34,34 0,-19 14,-34 33,-34 18,0 33,15 33,34 0,18 -15,33 -33,33 -19,0 -33,-15 -33,-33 0,18 -15,33 -34,33 -18,0 -33,-15 -33,-33 0,18 -15,33 -34,33 -18,0 -33,-15 -33,-33zm234 0c0,-19 15,-34 33,-34 19,0 33,15 33,34 0,18 -14,33 -33,33 -18,0 -33,-15 -33,-33zm133 0c0,-19 15,-34 34,-34 18,0 33,15 33,34 0,18 -15,33 -33,33 -19,0 -34,-15 -34,-33zm100 0c0,-19 15,-34 34,-34 18,0 33,15 33,34l0 0 0 0c0,18 -15,33 -33,33 -19,0 -34,-15 -34,-33zm67 0c0,-19 15,-34 34,-34 18,0 33,15 33,34 0,18 -15,33 -33,33 -19,0 -34,-15 -34,-33zm-1181 -78c19,0 34,15 34,33 0,19 -15,34 -34,34 19,0 34,15 34,33 0,18 -15,33 -34,33 19,0 34,15 34,34 0,18 -15,33 -34,33 -18,0 -33,-15 -33,-33 0,-19 15,-34 33,-34 -18,0 -33,-15 -33,-33 0,-18 15,-33 33,-33 -18,0 -33,-15 -33,-34 0,-18 15,-33 33,-33zm0 234c19,0 34,15 34,33 0,18 -15,33 -34,33 -18,0 -33,-15 -33,-33 0,-18 15,-33 33,-33zm0 133c19,0 34,15 34,34 0,18 -15,33 -34,33 -18,0 -33,-15 -33,-33 0,-19 15,-34 33,-34zm0 100c19,0 34,15 34,34 0,18 -15,33 -34,33 -18,0 -33,-15 -33,-33 0,-19 15,-34 33,-34zm0 100c19,0 34,15 34,34 0,18 -15,33 -34,33l0 0 0 0c-18,0 -33,-15 -33,-33 0,-19 15,-34 33,-34zm0 67c19,0 34,15 34,34 0,18 -15,33 -34,33 -18,0 -33,-15 -33,-33 0,-19 15,-34 33,-34zm-66 -762c18,0 33,15 33,33 0,19 -15,34 -33,34 -19,0 -34,-15 -34,-34 0,-18 15,-33 34,-33zm0 133c18,0 33,15 33,34 0,18 -15,33 -33,33 18,0 33,15 33,34 0,18 -15,33 -33,33 18,0 33,15 33,33 0,19 -15,34 -33,34 -19,0 -34,-15 -34,-34 0,-18 15,-33 34,-33 -19,0 -34,-15 -34,-33 0,-19 15,-34 34,-34 -19,0 -34,-15 -34,-33 0,-19 15,-34 34,-34zm0 234c18,0 33,15 33,34 0,18 -15,33 -33,33 -19,0 -34,-15 -34,-33 0,-19 15,-34 34,-34zm0 134c18,0 33,15 33,33 0,19 -15,33 -33,33 -19,0 -34,-14 -34,-33 0,-18 15,-33 34,-33zm0 100c18,0 33,15 33,33 0,19 -15,34 -33,34l0 0 0 0c-19,0 -34,-15 -34,-34 0,-18 15,-33 34,-33zm1488 -866c19,0 34,15 34,33 0,19 -15,34 -34,34 19,0 34,15 34,33 0,19 -15,34 -34,34 19,0 34,15 34,33 0,18 -15,33 -34,33 -18,0 -33,-15 -33,-33 0,-18 15,-33 33,-33 -18,0 -33,-15 -33,-34 0,-18 15,-33 33,-33 -18,0 -33,-15 -33,-34 0,-18 15,-33 33,-33zm0 234c19,0 34,15 34,33 0,19 -15,34 -34,34 -18,0 -33,-15 -33,-34 0,-18 15,-33 33,-33zm0 133c19,0 34,15 34,34 0,18 -15,33 -34,33 -18,0 -33,-15 -33,-33 0,-19 15,-34 33,-34zm0 101c19,0 34,15 34,33 0,18 -15,33 -34,33 -18,0 -33,-15 -33,-33 0,-18 15,-33 33,-33zm0 100c19,0 34,15 34,33 0,19 -15,34 -34,34l0 0 0 0c-18,0 -33,-15 -33,-34 0,-18 15,-33 33,-33zm0 67c19,0 34,14 34,33 0,18 -15,33 -34,33 -18,0 -33,-15 -33,-33 0,-19 15,-33 33,-33zm-66 -629c18,0 33,15 33,33 0,18 -15,33 -33,33 18,0 33,15 33,34 0,18 -15,33 -33,33 18,0 33,15 33,34 0,18 -15,33 -33,33 -19,0 -34,-15 -34,-33 0,-19 15,-34 34,-34 -19,0 -34,-15 -34,-33 0,-19 15,-34 34,-34 -19,0 -34,-15 -34,-33 0,-18 15,-33 34,-33zm0 233c18,0 33,15 33,34 0,18 -15,33 -33,33 -19,0 -34,-15 -34,-33 0,-19 15,-34 34,-34zm0 134c18,0 33,15 33,33 0,19 -15,34 -33,34 -19,0 -34,-15 -34,-34 0,-18 15,-33 34,-33zm0 100c18,0 33,15 33,34 0,18 -15,33 -33,33l0 0 0 0c-19,0 -34,-15 -34,-33 0,-19 15,-34 34,-34zm0 67c18,0 33,15 33,33 0,19 -15,34 -33,34 -19,0 -34,-15 -34,-34 0,-18 15,-33 34,-33zm-2206 -1146c18,0 33,15 33,33 0,18 -15,33 -33,33 18,0 33,15 33,34 0,18 -15,33 -33,33 18,0 33,15 33,34 0,18 -15,33 -33,33 -19,0 -34,-15 -34,-33 0,-19 15,-34 34,-34 -19,0 -34,-15 -34,-33 0,-19 15,-34 34,-34 -19,0 -34,-15 -34,-33 0,-18 15,-33 34,-33zm0 233c18,0 33,15 33,34 0,18 -15,33 -33,33 -19,0 -34,-15 -34,-33 0,-19 15,-34 34,-34zm0 134c18,0 33,15 33,33 0,19 -15,34 -33,34 -19,0 -34,-15 -34,-34 0,-18 15,-33 34,-33zm0 100c18,0 33,15 33,34 0,18 -15,33 -33,33 -19,0 -34,-15 -34,-33 0,-19 15,-34 34,-34zm0 100c18,0 33,15 33,34 0,18 -15,33 -33,33l0 0 0 0c-19,0 -34,-15 -34,-33 0,-19 15,-34 34,-34zm0 67c18,0 33,15 33,33 0,19 -15,34 -33,34 -19,0 -34,-15 -34,-34 0,-18 15,-33 34,-33zm-67 -762c18,0 33,15 33,33 0,18 -15,33 -33,33 -19,0 -34,-15 -34,-33 0,-18 15,-33 34,-33zm0 133c18,0 33,15 33,34 0,18 -15,33 -33,33 18,0 33,15 33,33 0,19 -15,34 -33,34 18,0 33,15 33,33 0,19 -15,34 -33,34 -19,0 -34,-15 -34,-34 0,-18 15,-33 34,-33 -19,0 -34,-15 -34,-34 0,-18 15,-33 34,-33 -19,0 -34,-15 -34,-33 0,-19 15,-34 34,-34zm0 234c18,0 33,15 33,33 0,19 -15,34 -33,34 -19,0 -34,-15 -34,-34 0,-18 15,-33 34,-33zm0 134c18,0 33,14 33,33 0,18 -15,33 -33,33 -19,0 -34,-15 -34,-33 0,-19 15,-33 34,-33zm0 166c18,0 33,15 33,34 0,18 -15,33 -33,33 -19,0 -34,-15 -34,-33 0,-19 15,-34 34,-34z"/>
   <path class="fil1" d="M2642 301l166 0c135,0 244,110 244,244l0 166c0,135 -109,245 -244,245l-166 0c-134,0 -244,-110 -244,-245l0 -166c0,-134 110,-244 244,-244zm0 186l166 0c32,0 58,26 58,58l0 166c0,32 -26,58 -58,58l-166 0c-32,0 -58,-26 -58,-58l0 -166c0,-32 26,-58 58,-58zm0 -133l166 0c105,0 191,86 191,191l0 166c0,105 -86,191 -191,191l-166 0c-105,0 -191,-86 -191,-191l0 -166c0,-105 86,-191 191,-191z"/>
   <path class="fil1" d="M546 2410l166 0c134,0 244,109 244,244l0 166c0,134 -110,244 -244,244l-166 0c-134,0 -244,-110 -244,-244l0 -166c0,-135 110,-244 244,-244zm0 186l166 0c32,0 58,26 58,58l0 166c0,32 -26,58 -58,58l-166 0c-32,0 -58,-26 -58,-58l0 -166c0,-32 26,-58 58,-58zm0 -133l166 0c105,0 191,86 191,191l0 166c0,105 -86,191 -191,191l-166 0c-105,0 -191,-86 -191,-191l0 -166c0,-105 86,-191 191,-191z"/>
  </g>
  <g id="_313318624">
   <path class="fil2" d="M1683 1113c367,0 716,145 975,405l31 30 -262 262 -31 -30c-190,-190 -445,-296 -713,-296 -269,0 -524,106 -714,296l-31 30 -262 -262 31 -30c259,-260 608,-405 976,-405zm0 1054c180,0 326,146 326,326 0,180 -146,326 -326,326 -181,0 -327,-146 -327,-326 0,-180 146,-326 327,-326zm0 -1621c518,0 1010,204 1377,570l30 31 -262 262 -30 -31c-297,-297 -696,-462 -1115,-462 -420,0 -819,165 -1116,462l-30 31 -262 -262 30 -31c367,-366 859,-570 1378,-570zm0 1135c216,0 421,85 574,238l30 31 -262 262 -30 -31c-83,-83 -195,-129 -312,-129 -118,0 -230,46 -313,129l-30 31 -262 -262 30 -31c153,-153 358,-238 575,-238z"/>
  </g>
  <path class="fil3" d="M1683 1157c-370,0 -704,149 -946,391l201 201c191,-190 454,-308 745,-308 290,0 553,118 744,308l201 -201c-242,-242 -576,-391 -945,-391zm0 1054c156,0 282,126 282,282 0,157 -126,283 -282,283 -157,0 -283,-126 -283,-283 0,-156 126,-282 283,-282zm0 -1622c-526,0 -1003,213 -1347,558l201 200c293,-293 698,-474 1146,-474 447,0 852,181 1145,474l201 -200c-344,-345 -821,-558 -1346,-558zm0 1136c-213,0 -405,86 -544,225l201 201c87,-88 209,-142 343,-142 133,0 255,54 342,142l201 -201c-139,-139 -331,-225 -543,-225z"/>
 </g>
</svg>
